<svg width="102" height="21" viewBox="0 0 102 21" fill="none" xmlns="http://www.w3.org/2000/svg">
<path d="M10.5 1.96875C8.81268 1.96875 7.16325 2.4691 5.7603 3.40653C4.35734 4.34395 3.26387 5.67635 2.61816 7.23523C1.97245 8.79411 1.8035 10.5095 2.13268 12.1644C2.46186 13.8193 3.27438 15.3394 4.4675 16.5325C5.66062 17.7256 7.18074 18.5381 8.83564 18.8673C10.4905 19.1965 12.2059 19.0276 13.7648 18.3818C15.3237 17.7361 16.6561 16.6427 17.5935 15.2397C18.5309 13.8368 19.0313 12.1873 19.0313 10.5C19.0289 8.23811 18.1293 6.06954 16.5299 4.47013C14.9305 2.87073 12.7619 1.97114 10.5 1.96875ZM6.07688 16.2012C6.55162 15.4587 7.20563 14.8477 7.97863 14.4244C8.75162 14.0012 9.61872 13.7793 10.5 13.7793C11.3813 13.7793 12.2484 14.0012 13.0214 14.4244C13.7944 14.8477 14.4484 15.4587 14.9231 16.2012C13.6585 17.1847 12.1021 17.7187 10.5 17.7187C8.89792 17.7187 7.34153 17.1847 6.07688 16.2012ZM7.875 9.84375C7.875 9.32457 8.02896 8.81706 8.3174 8.38538C8.60584 7.9537 9.0158 7.61725 9.49546 7.41857C9.97512 7.21989 10.5029 7.1679 11.0121 7.26919C11.5213 7.37048 11.989 7.62048 12.3562 7.9876C12.7233 8.35471 12.9733 8.82244 13.0746 9.33164C13.1759 9.84084 13.1239 10.3686 12.9252 10.8483C12.7265 11.328 12.3901 11.7379 11.9584 12.0264C11.5267 12.3148 11.0192 12.4688 10.5 12.4688C9.80381 12.4688 9.13613 12.1922 8.64385 11.6999C8.15157 11.2076 7.875 10.5399 7.875 9.84375ZM15.8944 15.2914C15.1625 14.2308 14.1333 13.4103 12.9363 12.933C13.5793 12.4266 14.0485 11.7324 14.2786 10.947C14.5088 10.1615 14.4884 9.32391 14.2205 8.55057C13.9525 7.77722 13.4502 7.1066 12.7834 6.63197C12.1166 6.15734 11.3185 5.90229 10.5 5.90229C9.68154 5.90229 8.88342 6.15734 8.21663 6.63197C7.54984 7.1066 7.04753 7.77722 6.77955 8.55057C6.51156 9.32391 6.49123 10.1615 6.72138 10.947C6.95152 11.7324 7.4207 12.4266 8.06368 12.933C6.86669 13.4103 5.83754 14.2308 5.10563 15.2914C4.18078 14.2514 3.5763 12.9662 3.36496 11.5906C3.15363 10.215 3.34446 8.80761 3.91447 7.53793C4.48448 6.26826 5.40937 5.19043 6.57777 4.43423C7.74616 3.67803 9.10825 3.27571 10.5 3.27571C11.8918 3.27571 13.2538 3.67803 14.4222 4.43423C15.5906 5.19043 16.5155 6.26826 17.0855 7.53793C17.6556 8.80761 17.8464 10.215 17.635 11.5906C17.4237 12.9662 16.8192 14.2514 15.8944 15.2914Z" fill="#696F79"/>
<path d="M30.47 16V6.2H31.618L36.014 13.606H35.398L39.738 6.2H40.886L40.9 16H39.556L39.542 8.314H39.864L36 14.81H35.356L31.464 8.314H31.814V16H30.47ZM44.0371 18.8C43.6824 18.8 43.3371 18.7393 43.0011 18.618C42.6651 18.506 42.3758 18.338 42.1331 18.114L42.7071 17.106C42.8938 17.2833 43.0991 17.4187 43.3231 17.512C43.5471 17.6053 43.7851 17.652 44.0371 17.652C44.3638 17.652 44.6344 17.568 44.8491 17.4C45.0638 17.232 45.2644 16.9333 45.4511 16.504L45.9131 15.482L46.0531 15.314L48.9651 8.58H50.2811L46.6831 16.742C46.4684 17.2647 46.2258 17.6753 45.9551 17.974C45.6938 18.2727 45.4044 18.4827 45.0871 18.604C44.7698 18.7347 44.4198 18.8 44.0371 18.8ZM45.8011 16.238L42.4131 8.58H43.8131L46.6971 15.188L45.8011 16.238ZM55.6312 16V6.2H59.4532C60.3118 6.2 61.0445 6.33533 61.6512 6.606C62.2578 6.87667 62.7245 7.26867 63.0512 7.782C63.3778 8.29533 63.5412 8.90667 63.5412 9.616C63.5412 10.3253 63.3778 10.9367 63.0512 11.45C62.7245 11.954 62.2578 12.346 61.6512 12.626C61.0445 12.8967 60.3118 13.032 59.4532 13.032H56.4012L57.0312 12.374V16H55.6312ZM57.0312 12.514L56.4012 11.814H59.4112C60.3072 11.814 60.9838 11.6227 61.4412 11.24C61.9078 10.8573 62.1412 10.316 62.1412 9.616C62.1412 8.916 61.9078 8.37467 61.4412 7.992C60.9838 7.60933 60.3072 7.418 59.4112 7.418H56.4012L57.0312 6.718V12.514ZM65.3352 16V8.58H66.6232V10.596L66.4972 10.092C66.7026 9.57867 67.0479 9.18667 67.5332 8.916C68.0186 8.64533 68.6159 8.51 69.3252 8.51V9.812C69.2692 9.80267 69.2132 9.798 69.1572 9.798C69.1106 9.798 69.0639 9.798 69.0172 9.798C68.2986 9.798 67.7292 10.0127 67.3092 10.442C66.8892 10.8713 66.6792 11.492 66.6792 12.304V16H65.3352ZM74.1614 16.084C73.4147 16.084 72.752 15.9207 72.1734 15.594C71.5947 15.2673 71.1374 14.8193 70.8014 14.25C70.4654 13.6713 70.2974 13.018 70.2974 12.29C70.2974 11.5527 70.4654 10.8993 70.8014 10.33C71.1374 9.76067 71.5947 9.31733 72.1734 9C72.752 8.67333 73.4147 8.51 74.1614 8.51C74.8987 8.51 75.5567 8.67333 76.1354 9C76.7234 9.31733 77.1807 9.76067 77.5074 10.33C77.8434 10.89 78.0114 11.5433 78.0114 12.29C78.0114 13.0273 77.8434 13.6807 77.5074 14.25C77.1807 14.8193 76.7234 15.2673 76.1354 15.594C75.5567 15.9207 74.8987 16.084 74.1614 16.084ZM74.1614 14.908C74.6374 14.908 75.062 14.8007 75.4354 14.586C75.818 14.3713 76.1167 14.068 76.3314 13.676C76.546 13.2747 76.6534 12.8127 76.6534 12.29C76.6534 11.758 76.546 11.3007 76.3314 10.918C76.1167 10.526 75.818 10.2227 75.4354 10.008C75.062 9.79333 74.6374 9.686 74.1614 9.686C73.6854 9.686 73.2607 9.79333 72.8874 10.008C72.514 10.2227 72.2154 10.526 71.9914 10.918C71.7674 11.3007 71.6554 11.758 71.6554 12.29C71.6554 12.8127 71.7674 13.2747 71.9914 13.676C72.2154 14.068 72.514 14.3713 72.8874 14.586C73.2607 14.8007 73.6854 14.908 74.1614 14.908ZM80.1361 16V7.922C80.1361 7.194 80.3461 6.61533 80.7661 6.186C81.1954 5.74733 81.8021 5.528 82.5861 5.528C82.8754 5.528 83.1508 5.56533 83.4121 5.64C83.6828 5.70533 83.9114 5.81267 84.0981 5.962L83.6921 6.984C83.5521 6.872 83.3934 6.788 83.2161 6.732C83.0388 6.66667 82.8521 6.634 82.6561 6.634C82.2641 6.634 81.9654 6.746 81.7601 6.97C81.5548 7.18467 81.4521 7.50667 81.4521 7.936V8.93L81.4801 9.546V16H80.1361ZM78.8761 9.686V8.58H83.6081V9.686H78.8761ZM84.8821 16V8.58H86.2261V16H84.8821ZM85.5541 7.152C85.2928 7.152 85.0734 7.068 84.8961 6.9C84.7281 6.732 84.6441 6.52667 84.6441 6.284C84.6441 6.032 84.7281 5.822 84.8961 5.654C85.0734 5.486 85.2928 5.402 85.5541 5.402C85.8154 5.402 86.0301 5.486 86.1981 5.654C86.3754 5.81267 86.4641 6.01333 86.4641 6.256C86.4641 6.508 86.3801 6.72267 86.2121 6.9C86.0441 7.068 85.8248 7.152 85.5541 7.152ZM88.8558 16V5.612H90.1998V16H88.8558ZM96.14 16.084C95.3466 16.084 94.6466 15.9207 94.04 15.594C93.4426 15.2673 92.976 14.8193 92.64 14.25C92.3133 13.6807 92.15 13.0273 92.15 12.29C92.15 11.5527 92.3086 10.8993 92.626 10.33C92.9526 9.76067 93.396 9.31733 93.956 9C94.5253 8.67333 95.1646 8.51 95.874 8.51C96.5926 8.51 97.2273 8.66867 97.778 8.986C98.3286 9.30333 98.758 9.75133 99.066 10.33C99.3833 10.8993 99.542 11.5667 99.542 12.332C99.542 12.388 99.5373 12.4533 99.528 12.528C99.528 12.6027 99.5233 12.6727 99.514 12.738H93.2V11.772H98.814L98.268 12.108C98.2773 11.632 98.1793 11.2073 97.974 10.834C97.7686 10.4607 97.484 10.1713 97.12 9.966C96.7653 9.75133 96.35 9.644 95.874 9.644C95.4073 9.644 94.992 9.75133 94.628 9.966C94.264 10.1713 93.9793 10.4653 93.774 10.848C93.5686 11.2213 93.466 11.6507 93.466 12.136V12.36C93.466 12.8547 93.578 13.298 93.802 13.69C94.0353 14.0727 94.3573 14.3713 94.768 14.586C95.1786 14.8007 95.65 14.908 96.182 14.908C96.6206 14.908 97.0173 14.8333 97.372 14.684C97.736 14.5347 98.0533 14.3107 98.324 14.012L99.066 14.88C98.73 15.272 98.31 15.5707 97.806 15.776C97.3113 15.9813 96.756 16.084 96.14 16.084Z" fill="#696F79"/>
</svg>
