<svg width="111" height="21" viewBox="0 0 111 21" fill="none" xmlns="http://www.w3.org/2000/svg">
<path d="M19.4027 11.6672C19.3185 11.5828 19.2129 11.523 19.0973 11.4941C18.9817 11.4652 18.8604 11.4683 18.7464 11.5031C17.4951 11.8814 16.1646 11.9131 14.8966 11.5949C13.6287 11.2767 12.4709 10.6204 11.5465 9.69603C10.6221 8.77165 9.96585 7.61381 9.64761 6.34588C9.32937 5.07795 9.36109 3.74743 9.73939 2.4961C9.77449 2.38208 9.77786 2.26064 9.74911 2.14485C9.72036 2.02906 9.66059 1.9233 9.57623 1.83894C9.49187 1.75458 9.38611 1.69481 9.27032 1.66606C9.15453 1.63732 9.03309 1.64068 8.91907 1.67579C7.18906 2.20575 5.67026 3.26784 4.5788 4.71094C3.62429 5.97821 3.04207 7.48653 2.89754 9.06645C2.75301 10.6464 3.0519 12.2353 3.76063 13.6547C4.46935 15.0741 5.55984 16.2678 6.90958 17.1016C8.25932 17.9354 9.81482 18.3764 11.4013 18.3749C13.2522 18.3806 15.0539 17.7789 16.5299 16.6621C17.973 15.5706 19.0351 14.0518 19.5651 12.3218C19.5998 12.2082 19.603 12.0873 19.5744 11.972C19.5458 11.8568 19.4864 11.7514 19.4027 11.6672ZM15.7408 15.6137C14.3508 16.6607 12.6294 17.1702 10.8935 17.0487C9.15762 16.9271 7.52405 16.1826 6.29353 14.9522C5.06301 13.7218 4.31836 12.0883 4.19667 10.3524C4.07498 8.6165 4.58444 6.89508 5.63126 5.50501C6.31327 4.60435 7.19499 3.87426 8.20704 3.37219C8.14939 3.77679 8.12033 4.18495 8.12009 4.59364C8.12248 6.85553 9.02207 9.0241 10.6215 10.6235C12.2209 12.2229 14.3894 13.1225 16.6513 13.1249C17.0608 13.1248 17.4698 13.0957 17.8752 13.0379C17.3727 14.0502 16.642 14.9319 15.7408 15.6137Z" fill="#696F79"/>
<path d="M30.47 16V6.2H34.6C35.6453 6.2 36.5647 6.40533 37.358 6.816C38.1607 7.22667 38.7813 7.80067 39.22 8.538C39.668 9.27533 39.892 10.1293 39.892 11.1C39.892 12.0707 39.668 12.9247 39.22 13.662C38.7813 14.3993 38.1607 14.9733 37.358 15.384C36.5647 15.7947 35.6453 16 34.6 16H30.47ZM31.87 14.782H34.516C35.328 14.782 36.028 14.628 36.616 14.32C37.2133 14.012 37.6753 13.5827 38.002 13.032C38.3287 12.472 38.492 11.828 38.492 11.1C38.492 10.3627 38.3287 9.71867 38.002 9.168C37.6753 8.61733 37.2133 8.188 36.616 7.88C36.028 7.572 35.328 7.418 34.516 7.418H31.87V14.782ZM46.5164 16V14.432L46.4464 14.138V11.464C46.4464 10.8947 46.2784 10.456 45.9424 10.148C45.6157 9.83067 45.1211 9.672 44.4584 9.672C44.0197 9.672 43.5904 9.74667 43.1704 9.896C42.7504 10.036 42.3957 10.2273 42.1064 10.47L41.5464 9.462C41.9291 9.154 42.3864 8.92067 42.9184 8.762C43.4597 8.594 44.0244 8.51 44.6124 8.51C45.6297 8.51 46.4137 8.75733 46.9644 9.252C47.5151 9.74667 47.7904 10.5027 47.7904 11.52V16H46.5164ZM44.0804 16.084C43.5297 16.084 43.0444 15.9907 42.6244 15.804C42.2137 15.6173 41.8964 15.3607 41.6724 15.034C41.4484 14.698 41.3364 14.32 41.3364 13.9C41.3364 13.4987 41.4297 13.1347 41.6164 12.808C41.8124 12.4813 42.1251 12.22 42.5544 12.024C42.9931 11.828 43.5811 11.73 44.3184 11.73H46.6704V12.696H44.3744C43.7024 12.696 43.2497 12.808 43.0164 13.032C42.7831 13.256 42.6664 13.5267 42.6664 13.844C42.6664 14.208 42.8111 14.502 43.1004 14.726C43.3897 14.9407 43.7911 15.048 44.3044 15.048C44.8084 15.048 45.2471 14.936 45.6204 14.712C46.0031 14.488 46.2784 14.1613 46.4464 13.732L46.7124 14.656C46.5351 15.0947 46.2224 15.4447 45.7744 15.706C45.3264 15.958 44.7617 16.084 44.0804 16.084ZM50.3476 16V8.58H51.6356V10.596L51.5096 10.092C51.7149 9.57867 52.0603 9.18667 52.5456 8.916C53.0309 8.64533 53.6283 8.51 54.3376 8.51V9.812C54.2816 9.80267 54.2256 9.798 54.1696 9.798C54.1229 9.798 54.0763 9.798 54.0296 9.798C53.3109 9.798 52.7416 10.0127 52.3216 10.442C51.9016 10.8713 51.6916 11.492 51.6916 12.304V16H50.3476ZM57.1561 14.208L57.1841 12.486L61.4541 8.58H63.0781L59.8021 11.8L59.0741 12.416L57.1561 14.208ZM56.0641 16V5.612H57.4081V16H56.0641ZM61.7341 16L58.8221 12.388L59.6901 11.31L63.3861 16H61.7341ZM68.7868 16V6.2H69.9348L74.3308 13.606H73.7148L78.0548 6.2H79.2028L79.2168 16H77.8728L77.8588 8.314H78.1808L74.3168 14.81H73.6728L69.7808 8.314H70.1308V16H68.7868ZM85.2099 16.084C84.4632 16.084 83.8006 15.9207 83.2219 15.594C82.6432 15.2673 82.1859 14.8193 81.8499 14.25C81.5139 13.6713 81.3459 13.018 81.3459 12.29C81.3459 11.5527 81.5139 10.8993 81.8499 10.33C82.1859 9.76067 82.6432 9.31733 83.2219 9C83.8006 8.67333 84.4632 8.51 85.2099 8.51C85.9472 8.51 86.6052 8.67333 87.1839 9C87.7719 9.31733 88.2292 9.76067 88.5559 10.33C88.8919 10.89 89.0599 11.5433 89.0599 12.29C89.0599 13.0273 88.8919 13.6807 88.5559 14.25C88.2292 14.8193 87.7719 15.2673 87.1839 15.594C86.6052 15.9207 85.9472 16.084 85.2099 16.084ZM85.2099 14.908C85.6859 14.908 86.1106 14.8007 86.4839 14.586C86.8666 14.3713 87.1652 14.068 87.3799 13.676C87.5946 13.2747 87.7019 12.8127 87.7019 12.29C87.7019 11.758 87.5946 11.3007 87.3799 10.918C87.1652 10.526 86.8666 10.2227 86.4839 10.008C86.1106 9.79333 85.6859 9.686 85.2099 9.686C84.7339 9.686 84.3092 9.79333 83.9359 10.008C83.5626 10.2227 83.2639 10.526 83.0399 10.918C82.8159 11.3007 82.7039 11.758 82.7039 12.29C82.7039 12.8127 82.8159 13.2747 83.0399 13.676C83.2639 14.068 83.5626 14.3713 83.9359 14.586C84.3092 14.8007 84.7339 14.908 85.2099 14.908ZM94.0546 16.084C93.3359 16.084 92.6919 15.9253 92.1226 15.608C91.5626 15.2907 91.1193 14.8473 90.7926 14.278C90.4659 13.7087 90.3026 13.046 90.3026 12.29C90.3026 11.534 90.4659 10.876 90.7926 10.316C91.1193 9.74667 91.5626 9.30333 92.1226 8.986C92.6919 8.66867 93.3359 8.51 94.0546 8.51C94.6799 8.51 95.2446 8.65 95.7486 8.93C96.2526 9.21 96.6539 9.63 96.9526 10.19C97.2606 10.75 97.4146 11.45 97.4146 12.29C97.4146 13.13 97.2653 13.83 96.9666 14.39C96.6773 14.95 96.2806 15.3747 95.7766 15.664C95.2726 15.944 94.6986 16.084 94.0546 16.084ZM94.1666 14.908C94.6333 14.908 95.0533 14.8007 95.4266 14.586C95.8093 14.3713 96.1079 14.068 96.3226 13.676C96.5466 13.2747 96.6586 12.8127 96.6586 12.29C96.6586 11.758 96.5466 11.3007 96.3226 10.918C96.1079 10.526 95.8093 10.2227 95.4266 10.008C95.0533 9.79333 94.6333 9.686 94.1666 9.686C93.6906 9.686 93.2659 9.79333 92.8926 10.008C92.5193 10.2227 92.2206 10.526 91.9966 10.918C91.7726 11.3007 91.6606 11.758 91.6606 12.29C91.6606 12.8127 91.7726 13.2747 91.9966 13.676C92.2206 14.068 92.5193 14.3713 92.8926 14.586C93.2659 14.8007 93.6906 14.908 94.1666 14.908ZM96.7006 16V13.998L96.7846 12.276L96.6446 10.554V5.612H97.9886V16H96.7006ZM103.906 16.084C103.112 16.084 102.412 15.9207 101.806 15.594C101.208 15.2673 100.742 14.8193 100.406 14.25C100.079 13.6807 99.9156 13.0273 99.9156 12.29C99.9156 11.5527 100.074 10.8993 100.392 10.33C100.718 9.76067 101.162 9.31733 101.722 9C102.291 8.67333 102.93 8.51 103.64 8.51C104.358 8.51 104.993 8.66867 105.544 8.986C106.094 9.30333 106.524 9.75133 106.832 10.33C107.149 10.8993 107.308 11.5667 107.308 12.332C107.308 12.388 107.303 12.4533 107.294 12.528C107.294 12.6027 107.289 12.6727 107.28 12.738H100.966V11.772H106.58L106.034 12.108C106.043 11.632 105.945 11.2073 105.74 10.834C105.534 10.4607 105.25 10.1713 104.886 9.966C104.531 9.75133 104.116 9.644 103.64 9.644C103.173 9.644 102.758 9.75133 102.394 9.966C102.03 10.1713 101.745 10.4653 101.54 10.848C101.334 11.2213 101.232 11.6507 101.232 12.136V12.36C101.232 12.8547 101.344 13.298 101.568 13.69C101.801 14.0727 102.123 14.3713 102.534 14.586C102.944 14.8007 103.416 14.908 103.948 14.908C104.386 14.908 104.783 14.8333 105.138 14.684C105.502 14.5347 105.819 14.3107 106.09 14.012L106.832 14.88C106.496 15.272 106.076 15.5707 105.572 15.776C105.077 15.9813 104.522 16.084 103.906 16.084Z" fill="#696F79"/>
</svg>
