<svg width="104" height="21" viewBox="0 0 104 21" fill="none" xmlns="http://www.w3.org/2000/svg">
<path d="M19.6178 17.4251L15.024 8.23758C14.9695 8.12859 14.8857 8.03693 14.7821 7.97287C14.6784 7.90881 14.5589 7.87488 14.4371 7.87488C14.3152 7.87488 14.1958 7.90881 14.0921 7.97287C13.9884 8.03693 13.9047 8.12859 13.8502 8.23758L12.0693 11.8002C10.6733 11.7217 9.33023 11.2395 8.20312 10.4122C9.52554 9.00003 10.3268 7.17905 10.4746 5.25H12.4688C12.6428 5.25 12.8097 5.18086 12.9328 5.05779C13.0559 4.93472 13.125 4.7678 13.125 4.59375C13.125 4.4197 13.0559 4.25278 12.9328 4.12971C12.8097 4.00664 12.6428 3.9375 12.4688 3.9375H7.875V2.625C7.875 2.45095 7.80586 2.28403 7.68279 2.16096C7.55972 2.03789 7.3928 1.96875 7.21875 1.96875C7.0447 1.96875 6.87778 2.03789 6.75471 2.16096C6.63164 2.28403 6.5625 2.45095 6.5625 2.625V3.9375H1.96875C1.7947 3.9375 1.62778 4.00664 1.50471 4.12971C1.38164 4.25278 1.3125 4.4197 1.3125 4.59375C1.3125 4.7678 1.38164 4.93472 1.50471 5.05779C1.62778 5.18086 1.7947 5.25 1.96875 5.25H9.15715C9.01098 6.85835 8.32827 8.37083 7.21875 9.54434C6.52736 8.81481 5.99643 7.94855 5.66016 7.00137C5.63251 6.91873 5.58867 6.84242 5.53122 6.7769C5.47376 6.71138 5.40383 6.65796 5.3255 6.61976C5.24718 6.58156 5.16203 6.55934 5.07503 6.5544C4.98802 6.54946 4.90091 6.56189 4.81876 6.59098C4.73661 6.62007 4.66108 6.66523 4.59658 6.72382C4.53207 6.78241 4.47988 6.85327 4.44305 6.93225C4.40622 7.01123 4.38549 7.09675 4.38207 7.18383C4.37865 7.2709 4.39261 7.35779 4.42312 7.43941C4.81463 8.54673 5.43135 9.5609 6.23438 10.418C4.99797 11.3265 3.50308 11.8152 1.96875 11.8125C1.7947 11.8125 1.62778 11.8816 1.50471 12.0047C1.38164 12.1278 1.3125 12.2947 1.3125 12.4688C1.3125 12.6428 1.38164 12.8097 1.50471 12.9328C1.62778 13.0559 1.7947 13.125 1.96875 13.125C3.87236 13.1271 5.7214 12.4892 7.21875 11.3138C8.44067 12.2685 9.89933 12.8728 11.4384 13.0618L9.25641 17.4251C9.17852 17.5807 9.16566 17.761 9.22066 17.9261C9.27565 18.0913 9.394 18.2278 9.54967 18.3057C9.70533 18.3836 9.88556 18.3964 10.0507 18.3414C10.2159 18.2864 10.3524 18.1681 10.4303 18.0124L11.5615 15.75H17.3127L18.4439 18.0124C18.4985 18.1215 18.5823 18.2131 18.6861 18.2772C18.7898 18.3412 18.9093 18.3751 19.0312 18.375C19.1431 18.3749 19.2531 18.3463 19.3507 18.2918C19.4484 18.2373 19.5305 18.1587 19.5893 18.0635C19.648 17.9684 19.6815 17.8597 19.6865 17.748C19.6915 17.6363 19.6678 17.5251 19.6178 17.4251ZM12.2177 14.4375L14.4375 9.99879L16.6564 14.4375H12.2177Z" fill="#696F79"/>
<path d="M30.47 16V6.2H31.87V14.782H37.176V16H30.47ZM43.2625 16V14.432L43.1925 14.138V11.464C43.1925 10.8947 43.0245 10.456 42.6885 10.148C42.3618 9.83067 41.8672 9.672 41.2045 9.672C40.7658 9.672 40.3365 9.74667 39.9165 9.896C39.4965 10.036 39.1418 10.2273 38.8525 10.47L38.2925 9.462C38.6752 9.154 39.1325 8.92067 39.6645 8.762C40.2058 8.594 40.7705 8.51 41.3585 8.51C42.3758 8.51 43.1598 8.75733 43.7105 9.252C44.2612 9.74667 44.5365 10.5027 44.5365 11.52V16H43.2625ZM40.8265 16.084C40.2758 16.084 39.7905 15.9907 39.3705 15.804C38.9598 15.6173 38.6425 15.3607 38.4185 15.034C38.1945 14.698 38.0825 14.32 38.0825 13.9C38.0825 13.4987 38.1758 13.1347 38.3625 12.808C38.5585 12.4813 38.8712 12.22 39.3005 12.024C39.7392 11.828 40.3272 11.73 41.0645 11.73H43.4165V12.696H41.1205C40.4485 12.696 39.9958 12.808 39.7625 13.032C39.5292 13.256 39.4125 13.5267 39.4125 13.844C39.4125 14.208 39.5572 14.502 39.8465 14.726C40.1358 14.9407 40.5372 15.048 41.0505 15.048C41.5545 15.048 41.9932 14.936 42.3665 14.712C42.7492 14.488 43.0245 14.1613 43.1925 13.732L43.4585 14.656C43.2812 15.0947 42.9685 15.4447 42.5205 15.706C42.0725 15.958 41.5078 16.084 40.8265 16.084ZM51.0557 8.51C51.6624 8.51 52.1944 8.62667 52.6517 8.86C53.1184 9.09333 53.4824 9.448 53.7437 9.924C54.005 10.4 54.1357 11.002 54.1357 11.73V16H52.7917V11.884C52.7917 11.1653 52.6144 10.624 52.2597 10.26C51.9144 9.896 51.4244 9.714 50.7897 9.714C50.3137 9.714 49.8984 9.80733 49.5437 9.994C49.189 10.1807 48.9137 10.456 48.7177 10.82C48.531 11.184 48.4377 11.6367 48.4377 12.178V16H47.0937V8.58H48.3817V10.582L48.1717 10.05C48.4144 9.56467 48.7877 9.18667 49.2917 8.916C49.7957 8.64533 50.3837 8.51 51.0557 8.51ZM59.941 18.8C59.2597 18.8 58.597 18.702 57.953 18.506C57.3183 18.3193 56.8003 18.0487 56.399 17.694L57.043 16.658C57.3883 16.9567 57.813 17.19 58.317 17.358C58.821 17.5353 59.3483 17.624 59.899 17.624C60.7763 17.624 61.4203 17.4187 61.831 17.008C62.2417 16.5973 62.447 15.972 62.447 15.132V13.564L62.587 12.094L62.517 10.61V8.58H63.791V14.992C63.791 16.2987 63.4643 17.26 62.811 17.876C62.1577 18.492 61.201 18.8 59.941 18.8ZM59.773 15.692C59.0543 15.692 58.4103 15.5427 57.841 15.244C57.281 14.936 56.833 14.5113 56.497 13.97C56.1703 13.4287 56.007 12.8033 56.007 12.094C56.007 11.3753 56.1703 10.75 56.497 10.218C56.833 9.67667 57.281 9.25667 57.841 8.958C58.4103 8.65933 59.0543 8.51 59.773 8.51C60.4077 8.51 60.9863 8.64067 61.509 8.902C62.0317 9.154 62.447 9.546 62.755 10.078C63.0723 10.61 63.231 11.282 63.231 12.094C63.231 12.8967 63.0723 13.564 62.755 14.096C62.447 14.628 62.0317 15.0293 61.509 15.3C60.9863 15.5613 60.4077 15.692 59.773 15.692ZM59.927 14.516C60.4217 14.516 60.8603 14.4133 61.243 14.208C61.6257 14.0027 61.9243 13.718 62.139 13.354C62.363 12.99 62.475 12.57 62.475 12.094C62.475 11.618 62.363 11.198 62.139 10.834C61.9243 10.47 61.6257 10.19 61.243 9.994C60.8603 9.78867 60.4217 9.686 59.927 9.686C59.4323 9.686 58.989 9.78867 58.597 9.994C58.2143 10.19 57.911 10.47 57.687 10.834C57.4723 11.198 57.365 11.618 57.365 12.094C57.365 12.57 57.4723 12.99 57.687 13.354C57.911 13.718 58.2143 14.0027 58.597 14.208C58.989 14.4133 59.4323 14.516 59.927 14.516ZM69.551 16.084C68.9163 16.084 68.3563 15.9673 67.871 15.734C67.395 15.5007 67.0217 15.146 66.751 14.67C66.4897 14.1847 66.359 13.578 66.359 12.85V8.58H67.703V12.696C67.703 13.424 67.8757 13.97 68.221 14.334C68.5757 14.698 69.0703 14.88 69.705 14.88C70.1717 14.88 70.5777 14.7867 70.923 14.6C71.2683 14.404 71.5343 14.124 71.721 13.76C71.9077 13.3867 72.001 12.9387 72.001 12.416V8.58H73.345V16H72.071V13.998L72.281 14.53C72.0383 15.0247 71.6743 15.4073 71.189 15.678C70.7037 15.9487 70.1577 16.084 69.551 16.084ZM80.5796 16V14.432L80.5096 14.138V11.464C80.5096 10.8947 80.3416 10.456 80.0056 10.148C79.6789 9.83067 79.1843 9.672 78.5216 9.672C78.0829 9.672 77.6536 9.74667 77.2336 9.896C76.8136 10.036 76.4589 10.2273 76.1696 10.47L75.6096 9.462C75.9923 9.154 76.4496 8.92067 76.9816 8.762C77.5229 8.594 78.0876 8.51 78.6756 8.51C79.6929 8.51 80.4769 8.75733 81.0276 9.252C81.5783 9.74667 81.8536 10.5027 81.8536 11.52V16H80.5796ZM78.1436 16.084C77.5929 16.084 77.1076 15.9907 76.6876 15.804C76.2769 15.6173 75.9596 15.3607 75.7356 15.034C75.5116 14.698 75.3996 14.32 75.3996 13.9C75.3996 13.4987 75.4929 13.1347 75.6796 12.808C75.8756 12.4813 76.1883 12.22 76.6176 12.024C77.0563 11.828 77.6443 11.73 78.3816 11.73H80.7336V12.696H78.4376C77.7656 12.696 77.3129 12.808 77.0796 13.032C76.8463 13.256 76.7296 13.5267 76.7296 13.844C76.7296 14.208 76.8743 14.502 77.1636 14.726C77.4529 14.9407 77.8543 15.048 78.3676 15.048C78.8716 15.048 79.3103 14.936 79.6836 14.712C80.0663 14.488 80.3416 14.1613 80.5096 13.732L80.7756 14.656C80.5983 15.0947 80.2856 15.4447 79.8376 15.706C79.3896 15.958 78.8249 16.084 78.1436 16.084ZM87.6588 18.8C86.9775 18.8 86.3148 18.702 85.6708 18.506C85.0361 18.3193 84.5181 18.0487 84.1168 17.694L84.7608 16.658C85.1061 16.9567 85.5308 17.19 86.0348 17.358C86.5388 17.5353 87.0661 17.624 87.6168 17.624C88.4941 17.624 89.1381 17.4187 89.5488 17.008C89.9595 16.5973 90.1648 15.972 90.1648 15.132V13.564L90.3048 12.094L90.2348 10.61V8.58H91.5088V14.992C91.5088 16.2987 91.1821 17.26 90.5288 17.876C89.8755 18.492 88.9188 18.8 87.6588 18.8ZM87.4908 15.692C86.7721 15.692 86.1281 15.5427 85.5588 15.244C84.9988 14.936 84.5508 14.5113 84.2148 13.97C83.8881 13.4287 83.7248 12.8033 83.7248 12.094C83.7248 11.3753 83.8881 10.75 84.2148 10.218C84.5508 9.67667 84.9988 9.25667 85.5588 8.958C86.1281 8.65933 86.7721 8.51 87.4908 8.51C88.1255 8.51 88.7041 8.64067 89.2268 8.902C89.7495 9.154 90.1648 9.546 90.4728 10.078C90.7901 10.61 90.9488 11.282 90.9488 12.094C90.9488 12.8967 90.7901 13.564 90.4728 14.096C90.1648 14.628 89.7495 15.0293 89.2268 15.3C88.7041 15.5613 88.1255 15.692 87.4908 15.692ZM87.6448 14.516C88.1395 14.516 88.5781 14.4133 88.9608 14.208C89.3435 14.0027 89.6421 13.718 89.8568 13.354C90.0808 12.99 90.1928 12.57 90.1928 12.094C90.1928 11.618 90.0808 11.198 89.8568 10.834C89.6421 10.47 89.3435 10.19 88.9608 9.994C88.5781 9.78867 88.1395 9.686 87.6448 9.686C87.1501 9.686 86.7068 9.78867 86.3148 9.994C85.9321 10.19 85.6288 10.47 85.4048 10.834C85.1901 11.198 85.0828 11.618 85.0828 12.094C85.0828 12.57 85.1901 12.99 85.4048 13.354C85.6288 13.718 85.9321 14.0027 86.3148 14.208C86.7068 14.4133 87.1501 14.516 87.6448 14.516ZM97.4508 16.084C96.6575 16.084 95.9575 15.9207 95.3508 15.594C94.7535 15.2673 94.2868 14.8193 93.9508 14.25C93.6241 13.6807 93.4608 13.0273 93.4608 12.29C93.4608 11.5527 93.6195 10.8993 93.9368 10.33C94.2635 9.76067 94.7068 9.31733 95.2668 9C95.8361 8.67333 96.4755 8.51 97.1848 8.51C97.9035 8.51 98.5381 8.66867 99.0888 8.986C99.6395 9.30333 100.069 9.75133 100.377 10.33C100.694 10.8993 100.853 11.5667 100.853 12.332C100.853 12.388 100.848 12.4533 100.839 12.528C100.839 12.6027 100.834 12.6727 100.825 12.738H94.5108V11.772H100.125L99.5788 12.108C99.5881 11.632 99.4901 11.2073 99.2848 10.834C99.0795 10.4607 98.7948 10.1713 98.4308 9.966C98.0761 9.75133 97.6608 9.644 97.1848 9.644C96.7181 9.644 96.3028 9.75133 95.9388 9.966C95.5748 10.1713 95.2901 10.4653 95.0848 10.848C94.8795 11.2213 94.7768 11.6507 94.7768 12.136V12.36C94.7768 12.8547 94.8888 13.298 95.1128 13.69C95.3461 14.0727 95.6681 14.3713 96.0788 14.586C96.4895 14.8007 96.9608 14.908 97.4928 14.908C97.9315 14.908 98.3281 14.8333 98.6828 14.684C99.0468 14.5347 99.3641 14.3107 99.6348 14.012L100.377 14.88C100.041 15.272 99.6208 15.5707 99.1168 15.776C98.6221 15.9813 98.0668 16.084 97.4508 16.084Z" fill="#696F79"/>
</svg>
