<svg width="153" height="21" viewBox="0 0 153 21" fill="none" xmlns="http://www.w3.org/2000/svg">
<path d="M10.5 6.56248C9.72121 6.56248 8.95993 6.79342 8.31241 7.22607C7.6649 7.65873 7.16022 8.27368 6.8622 8.99317C6.56418 9.71265 6.4862 10.5044 6.63813 11.2682C6.79006 12.032 7.16507 12.7335 7.71574 13.2842C8.26641 13.8349 8.968 14.2099 9.7318 14.3618C10.4956 14.5138 11.2873 14.4358 12.0068 14.1378C12.7263 13.8397 13.3412 13.3351 13.7739 12.6875C14.2065 12.04 14.4375 11.2787 14.4375 10.5C14.4364 9.45603 14.0212 8.45514 13.283 7.71695C12.5448 6.97876 11.5439 6.56357 10.5 6.56248ZM10.5 13.125C9.9808 13.125 9.47328 12.971 9.0416 12.6826C8.60992 12.3942 8.27347 11.9842 8.07479 11.5045C7.87611 11.0249 7.82412 10.4971 7.92541 9.98787C8.0267 9.47867 8.2767 9.01094 8.64382 8.64383C9.01093 8.27672 9.47866 8.02671 9.98786 7.92542C10.4971 7.82414 11.0249 7.87612 11.5045 8.0748C11.9842 8.27348 12.3941 8.60993 12.6826 9.04161C12.971 9.47329 13.125 9.98081 13.125 10.5C13.125 11.1962 12.8484 11.8639 12.3561 12.3561C11.8638 12.8484 11.1962 13.125 10.5 13.125ZM19.5185 8.79455C19.5002 8.70214 19.4622 8.61475 19.4072 8.53831C19.3521 8.46188 19.2813 8.39819 19.1994 8.35159L16.7524 6.95705L16.7426 4.19916C16.7423 4.10418 16.7213 4.0104 16.6813 3.92429C16.6412 3.83818 16.5829 3.7618 16.5104 3.70041C15.6228 2.94958 14.6006 2.37419 13.4982 2.00483C13.4114 1.97544 13.3194 1.96457 13.2281 1.97291C13.1369 1.98124 13.0483 2.0086 12.9683 2.05323L10.5 3.43299L8.02919 2.05077C7.94909 2.00589 7.86046 1.97832 7.76904 1.96984C7.67762 1.96137 7.58544 1.97217 7.49845 2.00155C6.39689 2.37361 5.37588 2.95119 4.48954 3.7037C4.41717 3.76499 4.35893 3.84124 4.31886 3.9272C4.27878 4.01316 4.25781 4.10678 4.2574 4.20162L4.24509 6.96198L1.7981 8.35651C1.71623 8.40311 1.64536 8.4668 1.5903 8.54324C1.53524 8.61967 1.49728 8.70706 1.479 8.79948C1.25505 9.92485 1.25505 11.0833 1.479 12.2087C1.49728 12.3011 1.53524 12.3885 1.5903 12.4649C1.64536 12.5414 1.71623 12.6051 1.7981 12.6517L4.24509 14.0462L4.25493 16.8041C4.25523 16.8991 4.27614 16.9929 4.31622 17.079C4.3563 17.1651 4.4146 17.2415 4.48708 17.3028C5.37472 18.0537 6.3969 18.6291 7.49927 18.9984C7.58608 19.0278 7.67809 19.0387 7.76936 19.0303C7.86063 19.022 7.94914 18.9946 8.02919 18.95L10.5 17.567L12.9708 18.9492C13.0685 19.0037 13.1787 19.0319 13.2907 19.0312C13.3623 19.0312 13.4335 19.0196 13.5015 18.9968C14.6029 18.6252 15.6239 18.0482 16.5104 17.2963C16.5828 17.235 16.641 17.1587 16.6811 17.0728C16.7212 16.9868 16.7421 16.8932 16.7426 16.7983L16.7549 14.038L19.2018 12.6435C19.2837 12.5969 19.3546 12.5332 19.4096 12.4567C19.4647 12.3803 19.5027 12.2929 19.521 12.2005C19.7437 11.076 19.7428 9.9187 19.5185 8.79455ZM18.288 11.6583L15.9444 12.9913C15.8417 13.0497 15.7567 13.1347 15.6983 13.2374C15.6507 13.3194 15.6007 13.4064 15.5498 13.4884C15.4847 13.5918 15.45 13.7115 15.4497 13.8337L15.4374 16.4792C14.8075 16.9739 14.1057 17.3695 13.3563 17.6523L10.9922 16.3349C10.894 16.2806 10.7836 16.2523 10.6714 16.2528H10.6558C10.5566 16.2528 10.4565 16.2528 10.3572 16.2528C10.2398 16.2499 10.1238 16.2782 10.0209 16.3349L7.65513 17.6556C6.90414 17.375 6.20041 16.9813 5.56825 16.4883L5.55923 13.8469C5.55883 13.7244 5.52416 13.6045 5.45915 13.5007C5.40829 13.4187 5.35825 13.3366 5.3115 13.2497C5.25352 13.1454 5.16851 13.0587 5.0654 12.9987L2.71931 11.6624C2.5979 10.8944 2.5979 10.1121 2.71931 9.34416L5.05884 8.0087C5.16152 7.95031 5.24655 7.86529 5.30493 7.7626C5.35251 7.68057 5.40255 7.59362 5.45341 7.51159C5.51851 7.40814 5.55319 7.28846 5.55349 7.16623L5.56579 4.52073C6.19573 4.02603 6.89754 3.63046 7.64693 3.34768L10.0078 4.6651C10.1105 4.72206 10.2267 4.75038 10.3441 4.74713C10.4434 4.74713 10.5434 4.74713 10.6427 4.74713C10.7601 4.75007 10.8762 4.72176 10.979 4.6651L13.3448 3.3444C14.0958 3.62501 14.7995 4.01864 15.4317 4.5117L15.4407 7.15311C15.4411 7.27558 15.4758 7.39549 15.5408 7.49928C15.5917 7.58131 15.6417 7.66334 15.6884 7.7503C15.7464 7.85457 15.8314 7.94128 15.9345 8.00131L18.2806 9.3376C18.4037 10.1062 18.405 10.8893 18.2847 11.6583H18.288Z" fill="#696F79"/>
<path d="M28.986 16L33.424 6.2H34.81L39.262 16H37.792L33.83 6.984H34.39L30.428 16H28.986ZM30.876 13.55L31.254 12.43H36.77L37.176 13.55H30.876ZM43.7635 16.084C43.0075 16.084 42.3309 15.9207 41.7335 15.594C41.1455 15.2673 40.6835 14.8193 40.3475 14.25C40.0115 13.6807 39.8435 13.0273 39.8435 12.29C39.8435 11.5527 40.0115 10.8993 40.3475 10.33C40.6835 9.76067 41.1455 9.31733 41.7335 9C42.3309 8.67333 43.0075 8.51 43.7635 8.51C44.4355 8.51 45.0329 8.64533 45.5555 8.916C46.0875 9.17733 46.4982 9.56933 46.7875 10.092L45.7655 10.75C45.5229 10.386 45.2242 10.12 44.8695 9.952C44.5242 9.77467 44.1509 9.686 43.7495 9.686C43.2642 9.686 42.8302 9.79333 42.4475 10.008C42.0649 10.2227 41.7615 10.526 41.5375 10.918C41.3135 11.3007 41.2015 11.758 41.2015 12.29C41.2015 12.822 41.3135 13.284 41.5375 13.676C41.7615 14.068 42.0649 14.3713 42.4475 14.586C42.8302 14.8007 43.2642 14.908 43.7495 14.908C44.1509 14.908 44.5242 14.824 44.8695 14.656C45.2242 14.4787 45.5229 14.208 45.7655 13.844L46.7875 14.488C46.4982 15.0013 46.0875 15.398 45.5555 15.678C45.0329 15.9487 44.4355 16.084 43.7635 16.084ZM51.7222 16.084C50.9662 16.084 50.2896 15.9207 49.6922 15.594C49.1042 15.2673 48.6422 14.8193 48.3062 14.25C47.9702 13.6807 47.8022 13.0273 47.8022 12.29C47.8022 11.5527 47.9702 10.8993 48.3062 10.33C48.6422 9.76067 49.1042 9.31733 49.6922 9C50.2896 8.67333 50.9662 8.51 51.7222 8.51C52.3942 8.51 52.9916 8.64533 53.5142 8.916C54.0462 9.17733 54.4569 9.56933 54.7462 10.092L53.7242 10.75C53.4816 10.386 53.1829 10.12 52.8282 9.952C52.4829 9.77467 52.1096 9.686 51.7082 9.686C51.2229 9.686 50.7889 9.79333 50.4062 10.008C50.0236 10.2227 49.7202 10.526 49.4962 10.918C49.2722 11.3007 49.1602 11.758 49.1602 12.29C49.1602 12.822 49.2722 13.284 49.4962 13.676C49.7202 14.068 50.0236 14.3713 50.4062 14.586C50.7889 14.8007 51.2229 14.908 51.7082 14.908C52.1096 14.908 52.4829 14.824 52.8282 14.656C53.1829 14.4787 53.4816 14.208 53.7242 13.844L54.7462 14.488C54.4569 15.0013 54.0462 15.398 53.5142 15.678C52.9916 15.9487 52.3942 16.084 51.7222 16.084ZM59.6249 16.084C58.8782 16.084 58.2156 15.9207 57.6369 15.594C57.0582 15.2673 56.6009 14.8193 56.2649 14.25C55.9289 13.6713 55.7609 13.018 55.7609 12.29C55.7609 11.5527 55.9289 10.8993 56.2649 10.33C56.6009 9.76067 57.0582 9.31733 57.6369 9C58.2156 8.67333 58.8782 8.51 59.6249 8.51C60.3622 8.51 61.0202 8.67333 61.5989 9C62.1869 9.31733 62.6442 9.76067 62.9709 10.33C63.3069 10.89 63.4749 11.5433 63.4749 12.29C63.4749 13.0273 63.3069 13.6807 62.9709 14.25C62.6442 14.8193 62.1869 15.2673 61.5989 15.594C61.0202 15.9207 60.3622 16.084 59.6249 16.084ZM59.6249 14.908C60.1009 14.908 60.5256 14.8007 60.8989 14.586C61.2816 14.3713 61.5802 14.068 61.7949 13.676C62.0096 13.2747 62.1169 12.8127 62.1169 12.29C62.1169 11.758 62.0096 11.3007 61.7949 10.918C61.5802 10.526 61.2816 10.2227 60.8989 10.008C60.5256 9.79333 60.1009 9.686 59.6249 9.686C59.1489 9.686 58.7242 9.79333 58.3509 10.008C57.9776 10.2227 57.6789 10.526 57.4549 10.918C57.2309 11.3007 57.1189 11.758 57.1189 12.29C57.1189 12.8127 57.2309 13.2747 57.4549 13.676C57.6789 14.068 57.9776 14.3713 58.3509 14.586C58.7242 14.8007 59.1489 14.908 59.6249 14.908ZM68.5256 16.084C67.8909 16.084 67.3309 15.9673 66.8456 15.734C66.3696 15.5007 65.9963 15.146 65.7256 14.67C65.4643 14.1847 65.3336 13.578 65.3336 12.85V8.58H66.6776V12.696C66.6776 13.424 66.8503 13.97 67.1956 14.334C67.5503 14.698 68.0449 14.88 68.6796 14.88C69.1463 14.88 69.5523 14.7867 69.8976 14.6C70.2429 14.404 70.5089 14.124 70.6956 13.76C70.8823 13.3867 70.9756 12.9387 70.9756 12.416V8.58H72.3196V16H71.0456V13.998L71.2556 14.53C71.0129 15.0247 70.6489 15.4073 70.1636 15.678C69.6783 15.9487 69.1323 16.084 68.5256 16.084ZM78.9102 8.51C79.5169 8.51 80.0489 8.62667 80.5062 8.86C80.9729 9.09333 81.3369 9.448 81.5982 9.924C81.8596 10.4 81.9902 11.002 81.9902 11.73V16H80.6462V11.884C80.6462 11.1653 80.4689 10.624 80.1142 10.26C79.7689 9.896 79.2789 9.714 78.6442 9.714C78.1682 9.714 77.7529 9.80733 77.3982 9.994C77.0436 10.1807 76.7682 10.456 76.5722 10.82C76.3856 11.184 76.2922 11.6367 76.2922 12.178V16H74.9482V8.58H76.2362V10.582L76.0262 10.05C76.2689 9.56467 76.6422 9.18667 77.1462 8.916C77.6502 8.64533 78.2382 8.51 78.9102 8.51ZM87.0955 16.084C86.3488 16.084 85.7702 15.8833 85.3595 15.482C84.9488 15.0807 84.7435 14.5067 84.7435 13.76V6.956H86.0875V13.704C86.0875 14.1053 86.1855 14.4133 86.3815 14.628C86.5868 14.8427 86.8762 14.95 87.2495 14.95C87.6695 14.95 88.0195 14.8333 88.2995 14.6L88.7195 15.566C88.5142 15.7433 88.2668 15.874 87.9775 15.958C87.6975 16.042 87.4035 16.084 87.0955 16.084ZM83.4835 9.686V8.58H88.2155V9.686H83.4835ZM97.2962 16.112C96.5495 16.112 95.8355 16 95.1542 15.776C94.4728 15.5427 93.9362 15.244 93.5442 14.88L94.0622 13.788C94.4355 14.1147 94.9115 14.3853 95.4902 14.6C96.0688 14.8147 96.6708 14.922 97.2962 14.922C97.8655 14.922 98.3275 14.8567 98.6822 14.726C99.0368 14.5953 99.2982 14.418 99.4662 14.194C99.6342 13.9607 99.7182 13.6993 99.7182 13.41C99.7182 13.074 99.6062 12.8033 99.3822 12.598C99.1675 12.3927 98.8828 12.2293 98.5282 12.108C98.1828 11.9773 97.8002 11.8653 97.3802 11.772C96.9602 11.6787 96.5355 11.5713 96.1062 11.45C95.6862 11.3193 95.2988 11.156 94.9442 10.96C94.5988 10.764 94.3188 10.5027 94.1042 10.176C93.8895 9.84 93.7822 9.41067 93.7822 8.888C93.7822 8.384 93.9128 7.922 94.1742 7.502C94.4448 7.07267 94.8555 6.732 95.4062 6.48C95.9662 6.21867 96.6755 6.088 97.5342 6.088C98.1035 6.088 98.6682 6.16267 99.2282 6.312C99.7882 6.46133 100.273 6.676 100.684 6.956L100.222 8.076C99.8022 7.796 99.3588 7.59533 98.8922 7.474C98.4255 7.34333 97.9728 7.278 97.5342 7.278C96.9835 7.278 96.5308 7.348 96.1762 7.488C95.8215 7.628 95.5602 7.81467 95.3922 8.048C95.2335 8.28133 95.1542 8.54267 95.1542 8.832C95.1542 9.17733 95.2615 9.45267 95.4762 9.658C95.7002 9.86333 95.9848 10.0267 96.3302 10.148C96.6848 10.2693 97.0722 10.3813 97.4922 10.484C97.9122 10.5773 98.3322 10.6847 98.7522 10.806C99.1815 10.9273 99.5688 11.086 99.9142 11.282C100.269 11.478 100.553 11.7393 100.768 12.066C100.983 12.3927 101.09 12.8127 101.09 13.326C101.09 13.8207 100.955 14.2827 100.684 14.712C100.413 15.132 99.9935 15.4727 99.4242 15.734C98.8642 15.986 98.1548 16.112 97.2962 16.112ZM106.313 16.084C105.52 16.084 104.82 15.9207 104.213 15.594C103.616 15.2673 103.149 14.8193 102.813 14.25C102.487 13.6807 102.323 13.0273 102.323 12.29C102.323 11.5527 102.482 10.8993 102.799 10.33C103.126 9.76067 103.569 9.31733 104.129 9C104.699 8.67333 105.338 8.51 106.047 8.51C106.766 8.51 107.401 8.66867 107.951 8.986C108.502 9.30333 108.931 9.75133 109.239 10.33C109.557 10.8993 109.715 11.5667 109.715 12.332C109.715 12.388 109.711 12.4533 109.701 12.528C109.701 12.6027 109.697 12.6727 109.687 12.738H103.373V11.772H108.987L108.441 12.108C108.451 11.632 108.353 11.2073 108.147 10.834C107.942 10.4607 107.657 10.1713 107.293 9.966C106.939 9.75133 106.523 9.644 106.047 9.644C105.581 9.644 105.165 9.75133 104.801 9.966C104.437 10.1713 104.153 10.4653 103.947 10.848C103.742 11.2213 103.639 11.6507 103.639 12.136V12.36C103.639 12.8547 103.751 13.298 103.975 13.69C104.209 14.0727 104.531 14.3713 104.941 14.586C105.352 14.8007 105.823 14.908 106.355 14.908C106.794 14.908 107.191 14.8333 107.545 14.684C107.909 14.5347 108.227 14.3107 108.497 14.012L109.239 14.88C108.903 15.272 108.483 15.5707 107.979 15.776C107.485 15.9813 106.929 16.084 106.313 16.084ZM114.2 16.084C113.453 16.084 112.874 15.8833 112.464 15.482C112.053 15.0807 111.848 14.5067 111.848 13.76V6.956H113.192V13.704C113.192 14.1053 113.29 14.4133 113.486 14.628C113.691 14.8427 113.98 14.95 114.354 14.95C114.774 14.95 115.124 14.8333 115.404 14.6L115.824 15.566C115.618 15.7433 115.371 15.874 115.082 15.958C114.802 16.042 114.508 16.084 114.2 16.084ZM110.588 9.686V8.58H115.32V9.686H110.588ZM119.889 16.084C119.142 16.084 118.564 15.8833 118.153 15.482C117.742 15.0807 117.537 14.5067 117.537 13.76V6.956H118.881V13.704C118.881 14.1053 118.979 14.4133 119.175 14.628C119.38 14.8427 119.67 14.95 120.043 14.95C120.463 14.95 120.813 14.8333 121.093 14.6L121.513 15.566C121.308 15.7433 121.06 15.874 120.771 15.958C120.491 16.042 120.197 16.084 119.889 16.084ZM116.277 9.686V8.58H121.009V9.686H116.277ZM123.208 16V8.58H124.552V16H123.208ZM123.88 7.152C123.618 7.152 123.399 7.068 123.222 6.9C123.054 6.732 122.97 6.52667 122.97 6.284C122.97 6.032 123.054 5.822 123.222 5.654C123.399 5.486 123.618 5.402 123.88 5.402C124.141 5.402 124.356 5.486 124.524 5.654C124.701 5.81267 124.79 6.01333 124.79 6.256C124.79 6.508 124.706 6.72267 124.538 6.9C124.37 7.068 124.15 7.152 123.88 7.152ZM131.15 8.51C131.757 8.51 132.289 8.62667 132.746 8.86C133.213 9.09333 133.577 9.448 133.838 9.924C134.099 10.4 134.23 11.002 134.23 11.73V16H132.886V11.884C132.886 11.1653 132.709 10.624 132.354 10.26C132.009 9.896 131.519 9.714 130.884 9.714C130.408 9.714 129.993 9.80733 129.638 9.994C129.283 10.1807 129.008 10.456 128.812 10.82C128.625 11.184 128.532 11.6367 128.532 12.178V16H127.188V8.58H128.476V10.582L128.266 10.05C128.509 9.56467 128.882 9.18667 129.386 8.916C129.89 8.64533 130.478 8.51 131.15 8.51ZM140.035 18.8C139.354 18.8 138.691 18.702 138.047 18.506C137.413 18.3193 136.895 18.0487 136.493 17.694L137.137 16.658C137.483 16.9567 137.907 17.19 138.411 17.358C138.915 17.5353 139.443 17.624 139.993 17.624C140.871 17.624 141.515 17.4187 141.925 17.008C142.336 16.5973 142.541 15.972 142.541 15.132V13.564L142.681 12.094L142.611 10.61V8.58H143.885V14.992C143.885 16.2987 143.559 17.26 142.905 17.876C142.252 18.492 141.295 18.8 140.035 18.8ZM139.867 15.692C139.149 15.692 138.505 15.5427 137.935 15.244C137.375 14.936 136.927 14.5113 136.591 13.97C136.265 13.4287 136.101 12.8033 136.101 12.094C136.101 11.3753 136.265 10.75 136.591 10.218C136.927 9.67667 137.375 9.25667 137.935 8.958C138.505 8.65933 139.149 8.51 139.867 8.51C140.502 8.51 141.081 8.64067 141.603 8.902C142.126 9.154 142.541 9.546 142.849 10.078C143.167 10.61 143.325 11.282 143.325 12.094C143.325 12.8967 143.167 13.564 142.849 14.096C142.541 14.628 142.126 15.0293 141.603 15.3C141.081 15.5613 140.502 15.692 139.867 15.692ZM140.021 14.516C140.516 14.516 140.955 14.4133 141.337 14.208C141.72 14.0027 142.019 13.718 142.233 13.354C142.457 12.99 142.569 12.57 142.569 12.094C142.569 11.618 142.457 11.198 142.233 10.834C142.019 10.47 141.72 10.19 141.337 9.994C140.955 9.78867 140.516 9.686 140.021 9.686C139.527 9.686 139.083 9.78867 138.691 9.994C138.309 10.19 138.005 10.47 137.781 10.834C137.567 11.198 137.459 11.618 137.459 12.094C137.459 12.57 137.567 12.99 137.781 13.354C138.005 13.718 138.309 14.0027 138.691 14.208C139.083 14.4133 139.527 14.516 140.021 14.516ZM148.651 16.084C148.035 16.084 147.447 16 146.887 15.832C146.337 15.664 145.903 15.4587 145.585 15.216L146.145 14.152C146.463 14.3667 146.855 14.5487 147.321 14.698C147.788 14.8473 148.264 14.922 148.749 14.922C149.375 14.922 149.823 14.8333 150.093 14.656C150.373 14.4787 150.513 14.2313 150.513 13.914C150.513 13.6807 150.429 13.4987 150.261 13.368C150.093 13.2373 149.869 13.1393 149.589 13.074C149.319 13.0087 149.015 12.9527 148.679 12.906C148.343 12.85 148.007 12.7847 147.671 12.71C147.335 12.626 147.027 12.514 146.747 12.374C146.467 12.2247 146.243 12.024 146.075 11.772C145.907 11.5107 145.823 11.1653 145.823 10.736C145.823 10.288 145.949 9.896 146.201 9.56C146.453 9.224 146.808 8.96733 147.265 8.79C147.732 8.60333 148.283 8.51 148.917 8.51C149.403 8.51 149.893 8.57067 150.387 8.692C150.891 8.804 151.302 8.96733 151.619 9.182L151.045 10.246C150.709 10.022 150.359 9.868 149.995 9.784C149.631 9.7 149.267 9.658 148.903 9.658C148.315 9.658 147.877 9.756 147.587 9.952C147.298 10.1387 147.153 10.3813 147.153 10.68C147.153 10.932 147.237 11.128 147.405 11.268C147.583 11.3987 147.807 11.5013 148.077 11.576C148.357 11.6507 148.665 11.716 149.001 11.772C149.337 11.8187 149.673 11.884 150.009 11.968C150.345 12.0427 150.649 12.15 150.919 12.29C151.199 12.43 151.423 12.626 151.591 12.878C151.769 13.13 151.857 13.466 151.857 13.886C151.857 14.334 151.727 14.7213 151.465 15.048C151.204 15.3747 150.835 15.6313 150.359 15.818C149.883 15.9953 149.314 16.084 148.651 16.084Z" fill="#696F79"/>
</svg>
