<svg width="78" height="17" viewBox="0 0 78 17" fill="none" xmlns="http://www.w3.org/2000/svg">
<path d="M7.1875 15.7188C7.1875 15.8928 7.11836 16.0597 6.99529 16.1828C6.87222 16.3059 6.7053 16.375 6.53125 16.375H1.9375C1.5894 16.375 1.25556 16.2367 1.00942 15.9906C0.76328 15.7444 0.625 15.4106 0.625 15.0625V1.9375C0.625 1.5894 0.76328 1.25556 1.00942 1.00942C1.25556 0.76328 1.5894 0.625 1.9375 0.625H6.53125C6.7053 0.625 6.87222 0.69414 6.99529 0.81721C7.11836 0.94028 7.1875 1.1072 7.1875 1.28125C7.1875 1.4553 7.11836 1.62222 6.99529 1.74529C6.87222 1.86836 6.7053 1.9375 6.53125 1.9375H1.9375V15.0625H6.53125C6.7053 15.0625 6.87222 15.1316 6.99529 15.2547C7.11836 15.3778 7.1875 15.5447 7.1875 15.7188ZM16.183 8.0357L12.9018 4.75445C12.7787 4.63131 12.6116 4.56214 12.4375 4.56214C12.2634 4.56214 12.0963 4.63131 11.9732 4.75445C11.8501 4.87759 11.7809 5.0446 11.7809 5.21875C11.7809 5.3929 11.8501 5.55991 11.9732 5.68305L14.1347 7.84375H6.53125C6.3572 7.84375 6.19028 7.91289 6.06721 8.036C5.94414 8.159 5.875 8.326 5.875 8.5C5.875 8.674 5.94414 8.841 6.06721 8.964C6.19028 9.0871 6.3572 9.1562 6.53125 9.1562H14.1347L11.9732 11.317C11.8501 11.4401 11.7809 11.6071 11.7809 11.7812C11.7809 11.9554 11.8501 12.1224 11.9732 12.2455C12.0963 12.3687 12.2634 12.4379 12.4375 12.4379C12.6116 12.4379 12.7787 12.3687 12.9018 12.2455L16.183 8.9643C16.2441 8.9033 16.2925 8.831 16.3255 8.7513C16.3585 8.6716 16.3755 8.5862 16.3755 8.5C16.3755 8.4138 16.3585 8.3284 16.3255 8.2487C16.2925 8.169 16.2441 8.0967 16.183 8.0357Z" fill="#F56342"/>
<path d="M28.47 14V4.2H29.87V12.782H35.176V14H28.47ZM39.7388 14.084C38.9921 14.084 38.3295 13.9207 37.7508 13.594C37.1721 13.2673 36.7148 12.8193 36.3788 12.25C36.0428 11.6713 35.8748 11.018 35.8748 10.29C35.8748 9.5527 36.0428 8.8993 36.3788 8.33C36.7148 7.76067 37.1721 7.31733 37.7508 7C38.3295 6.67333 38.9921 6.51 39.7388 6.51C40.4761 6.51 41.1341 6.67333 41.7128 7C42.3008 7.31733 42.7581 7.76067 43.0848 8.33C43.4208 8.89 43.5888 9.5433 43.5888 10.29C43.5888 11.0273 43.4208 11.6807 43.0848 12.25C42.7581 12.8193 42.3008 13.2673 41.7128 13.594C41.1341 13.9207 40.4761 14.084 39.7388 14.084ZM39.7388 12.908C40.2148 12.908 40.6395 12.8007 41.0128 12.586C41.3955 12.3713 41.6941 12.068 41.9088 11.676C42.1235 11.2747 42.2308 10.8127 42.2308 10.29C42.2308 9.758 42.1235 9.3007 41.9088 8.918C41.6941 8.526 41.3955 8.2227 41.0128 8.008C40.6395 7.79333 40.2148 7.686 39.7388 7.686C39.2628 7.686 38.8381 7.79333 38.4648 8.008C38.0915 8.2227 37.7928 8.526 37.5688 8.918C37.3448 9.3007 37.2328 9.758 37.2328 10.29C37.2328 10.8127 37.3448 11.2747 37.5688 11.676C37.7928 12.068 38.0915 12.3713 38.4648 12.586C38.8381 12.8007 39.2628 12.908 39.7388 12.908ZM48.7655 16.8C48.0842 16.8 47.4215 16.702 46.7775 16.506C46.1428 16.3193 45.6248 16.0487 45.2235 15.694L45.8675 14.658C46.2128 14.9567 46.6375 15.19 47.1415 15.358C47.6455 15.5353 48.1728 15.624 48.7235 15.624C49.6008 15.624 50.2448 15.4187 50.6555 15.008C51.0662 14.5973 51.2715 13.972 51.2715 13.132V11.564L51.4115 10.094L51.3415 8.61V6.58H52.6155V12.992C52.6155 14.2987 52.2888 15.26 51.6355 15.876C50.9822 16.492 50.0255 16.8 48.7655 16.8ZM48.5975 13.692C47.8788 13.692 47.2348 13.5427 46.6655 13.244C46.1055 12.936 45.6575 12.5113 45.3215 11.97C44.9948 11.4287 44.8315 10.8033 44.8315 10.094C44.8315 9.3753 44.9948 8.75 45.3215 8.218C45.6575 7.67667 46.1055 7.25667 46.6655 6.958C47.2348 6.65933 47.8788 6.51 48.5975 6.51C49.2322 6.51 49.8108 6.64067 50.3335 6.902C50.8562 7.154 51.2715 7.546 51.5795 8.078C51.8968 8.61 52.0555 9.282 52.0555 10.094C52.0555 10.8967 51.8968 11.564 51.5795 12.096C51.2715 12.628 50.8562 13.0293 50.3335 13.3C49.8108 13.5613 49.2322 13.692 48.5975 13.692ZM48.7515 12.516C49.2462 12.516 49.6848 12.4133 50.0675 12.208C50.4502 12.0027 50.7488 11.718 50.9635 11.354C51.1875 10.99 51.2995 10.57 51.2995 10.094C51.2995 9.618 51.1875 9.198 50.9635 8.834C50.7488 8.47 50.4502 8.19 50.0675 7.994C49.6848 7.78867 49.2462 7.686 48.7515 7.686C48.2568 7.686 47.8135 7.78867 47.4215 7.994C47.0388 8.19 46.7355 8.47 46.5115 8.834C46.2968 9.198 46.1895 9.618 46.1895 10.094C46.1895 10.57 46.2968 10.99 46.5115 11.354C46.7355 11.718 47.0388 12.0027 47.4215 12.208C47.8135 12.4133 48.2568 12.516 48.7515 12.516ZM58.4315 14.084C57.6849 14.084 57.0222 13.9207 56.4435 13.594C55.8649 13.2673 55.4075 12.8193 55.0715 12.25C54.7355 11.6713 54.5675 11.018 54.5675 10.29C54.5675 9.5527 54.7355 8.8993 55.0715 8.33C55.4075 7.76067 55.8649 7.31733 56.4435 7C57.0222 6.67333 57.6849 6.51 58.4315 6.51C59.1689 6.51 59.8269 6.67333 60.4055 7C60.9935 7.31733 61.4509 7.76067 61.7775 8.33C62.1135 8.89 62.2815 9.5433 62.2815 10.29C62.2815 11.0273 62.1135 11.6807 61.7775 12.25C61.4509 12.8193 60.9935 13.2673 60.4055 13.594C59.8269 13.9207 59.1689 14.084 58.4315 14.084ZM58.4315 12.908C58.9075 12.908 59.3322 12.8007 59.7055 12.586C60.0882 12.3713 60.3869 12.068 60.6015 11.676C60.8162 11.2747 60.9235 10.8127 60.9235 10.29C60.9235 9.758 60.8162 9.3007 60.6015 8.918C60.3869 8.526 60.0882 8.2227 59.7055 8.008C59.3322 7.79333 58.9075 7.686 58.4315 7.686C57.9555 7.686 57.5309 7.79333 57.1575 8.008C56.7842 8.2227 56.4855 8.526 56.2615 8.918C56.0375 9.3007 55.9255 9.758 55.9255 10.29C55.9255 10.8127 56.0375 11.2747 56.2615 11.676C56.4855 12.068 56.7842 12.3713 57.1575 12.586C57.5309 12.8007 57.9555 12.908 58.4315 12.908ZM67.3322 14.084C66.6976 14.084 66.1376 13.9673 65.6522 13.734C65.1762 13.5007 64.8029 13.146 64.5322 12.67C64.2709 12.1847 64.1402 11.578 64.1402 10.85V6.58H65.4842V10.696C65.4842 11.424 65.6569 11.97 66.0022 12.334C66.3569 12.698 66.8516 12.88 67.4862 12.88C67.9529 12.88 68.3589 12.7867 68.7042 12.6C69.0496 12.404 69.3156 12.124 69.5022 11.76C69.6889 11.3867 69.7822 10.9387 69.7822 10.416V6.58H71.1262V14H69.8522V11.998L70.0622 12.53C69.8196 13.0247 69.4556 13.4073 68.9702 13.678C68.4849 13.9487 67.9389 14.084 67.3322 14.084ZM76.3029 14.084C75.5562 14.084 74.9775 13.8833 74.5669 13.482C74.1562 13.0807 73.9509 12.5067 73.9509 11.76V4.956H75.2949V11.704C75.2949 12.1053 75.3929 12.4133 75.5889 12.628C75.7942 12.8427 76.0835 12.95 76.4569 12.95C76.8769 12.95 77.2269 12.8333 77.5069 12.6L77.9269 13.566C77.7215 13.7433 77.4742 13.874 77.1849 13.958C76.9049 14.042 76.6109 14.084 76.3029 14.084ZM72.6909 7.686V6.58H77.4229V7.686H72.6909Z" fill="#F56342"/>
</svg>
