<svg width="18" height="18" viewBox="0 0 18 18" fill="none" xmlns="http://www.w3.org/2000/svg">
<path d="M9 0.0625C7.23233 0.0625 5.50436 0.586675 4.0346 1.56874C2.56483 2.55081 1.41929 3.94665 0.742831 5.57977C0.0663725 7.21288 -0.11062 9.00992 0.234236 10.7436C0.579091 12.4773 1.43031 14.0698 2.68024 15.3198C3.93017 16.5697 5.52268 17.4209 7.25638 17.7658C8.99009 18.1106 10.7871 17.9336 12.4202 17.2572C14.0534 16.5807 15.4492 15.4352 16.4313 13.9654C17.4133 12.4956 17.9375 10.7677 17.9375 9C17.935 6.6304 16.9926 4.35856 15.317 2.683C13.6414 1.00743 11.3696 0.0650023 9 0.0625ZM10.0313 13.125H9.6875V13.8125C9.6875 13.9948 9.61507 14.1697 9.48614 14.2986C9.35721 14.4276 9.18234 14.5 9 14.5C8.81767 14.5 8.6428 14.4276 8.51387 14.2986C8.38494 14.1697 8.3125 13.9948 8.3125 13.8125V13.125H6.9375C6.75517 13.125 6.5803 13.0526 6.45137 12.9236C6.32244 12.7947 6.25 12.6198 6.25 12.4375C6.25 12.2552 6.32244 12.0803 6.45137 11.9514C6.5803 11.8224 6.75517 11.75 6.9375 11.75H10.0313C10.3048 11.75 10.5671 11.6413 10.7605 11.448C10.9539 11.2546 11.0625 10.9923 11.0625 10.7188C11.0625 10.4452 10.9539 10.1829 10.7605 9.98955C10.5671 9.79615 10.3048 9.6875 10.0313 9.6875H7.96875C7.33058 9.6875 6.71854 9.43398 6.26728 8.98273C5.81602 8.53147 5.5625 7.91943 5.5625 7.28125C5.5625 6.64307 5.81602 6.03103 6.26728 5.57977C6.71854 5.12852 7.33058 4.875 7.96875 4.875H8.3125V4.1875C8.3125 4.00516 8.38494 3.8303 8.51387 3.70136C8.6428 3.57243 8.81767 3.5 9 3.5C9.18234 3.5 9.35721 3.57243 9.48614 3.70136C9.61507 3.8303 9.6875 4.00516 9.6875 4.1875V4.875H11.0625C11.2448 4.875 11.4197 4.94743 11.5486 5.07636C11.6776 5.2053 11.75 5.38016 11.75 5.5625C11.75 5.74484 11.6776 5.9197 11.5486 6.04864C11.4197 6.17757 11.2448 6.25 11.0625 6.25H7.96875C7.69525 6.25 7.43295 6.35865 7.23955 6.55205C7.04615 6.74544 6.9375 7.00775 6.9375 7.28125C6.9375 7.55475 7.04615 7.81706 7.23955 8.01045C7.43295 8.20385 7.69525 8.3125 7.96875 8.3125H10.0313C10.6694 8.3125 11.2815 8.56601 11.7327 9.01727C12.184 9.46853 12.4375 10.0806 12.4375 10.7188C12.4375 11.3569 12.184 11.969 11.7327 12.4202C11.2815 12.8715 10.6694 13.125 10.0313 13.125Z" fill="#696F79"/>
</svg>
