<svg width="23" height="14" viewBox="0 0 23 14" fill="none" xmlns="http://www.w3.org/2000/svg">
<path d="M14.4561 12.8118C14.5237 12.9156 14.5621 13.0357 14.5672 13.1594C14.5722 13.2831 14.5437 13.4059 14.4847 13.5148C14.4258 13.6237 14.3385 13.7147 14.2321 13.778C14.1257 13.8414 14.0041 13.8749 13.8803 13.8749H1.20109C1.07725 13.8749 0.955712 13.8414 0.84932 13.778C0.742928 13.7147 0.65563 13.6237 0.59665 13.5148C0.53767 13.4059 0.509198 13.2831 0.514243 13.1594C0.519287 13.0357 0.557659 12.9156 0.625307 12.8118C1.59305 11.3222 3.01651 10.1855 4.68328 9.57115C3.76185 8.95772 3.0623 8.06404 2.68806 7.02228C2.31383 5.98052 2.28478 4.84598 2.60521 3.78644C2.92565 2.72689 3.57855 1.79859 4.46738 1.13881C5.3562 0.479031 6.43376 0.122803 7.5407 0.122803C8.64764 0.122803 9.72519 0.479031 10.614 1.13881C11.5028 1.79859 12.1557 2.72689 12.4762 3.78644C12.7966 4.84598 12.7676 5.98052 12.3933 7.02228C12.0191 8.06404 11.3195 8.95772 10.3981 9.57115C12.0649 10.1855 13.4883 11.3222 14.4561 12.8118ZM22.0109 12.799C21.0429 11.3156 19.6226 10.1837 17.9606 9.57115C19.0484 8.8384 19.8161 7.71868 20.1074 6.43988C20.3987 5.16108 20.1917 3.81933 19.5286 2.68775C18.8656 1.55616 17.7962 0.719787 16.5381 0.348873C15.2801 -0.0220409 13.928 0.100382 12.7571 0.691223C12.7123 0.714342 12.6732 0.747021 12.6424 0.786948C12.6117 0.826875 12.5901 0.873073 12.5792 0.92227C12.5683 0.971466 12.5683 1.02246 12.5793 1.07164C12.5903 1.12081 12.612 1.16697 12.6428 1.20685C13.5135 2.29293 14.0135 3.62929 14.0697 5.02016C14.1258 6.41104 13.7351 7.78334 12.9548 8.93607C12.9043 9.0114 12.8857 9.10361 12.9029 9.19261C12.9201 9.28162 12.9718 9.36022 13.0467 9.4113C14.0641 10.1214 14.9351 11.0209 15.6119 12.0608C15.8849 12.4788 15.9964 12.9819 15.9256 13.4761C15.9177 13.5253 15.9205 13.5756 15.9339 13.6236C15.9472 13.6716 15.9709 13.716 16.0032 13.754C16.0355 13.7919 16.0756 13.8224 16.1208 13.8432C16.1661 13.8641 16.2153 13.8749 16.2651 13.8749H21.4471C21.5985 13.8749 21.7457 13.825 21.8658 13.7329C21.9859 13.6407 22.0722 13.5115 22.1114 13.3653C22.1353 13.2691 22.1387 13.169 22.1214 13.0714C22.1041 12.9739 22.0664 12.881 22.0109 12.799Z" fill="#696F79"/>
</svg>
