<svg width="17" height="14" viewBox="0 0 17 14" fill="none" xmlns="http://www.w3.org/2000/svg">
<path d="M16.9099 0.8125V2.1875C16.9099 2.36984 16.8375 2.5447 16.7085 2.67364C16.5796 2.80257 16.4047 2.875 16.2224 2.875H5.90991C5.72758 2.875 5.55271 2.80257 5.42378 2.67364C5.29485 2.5447 5.22241 2.36984 5.22241 2.1875V0.8125C5.22241 0.630164 5.29485 0.455295 5.42378 0.326364C5.55271 0.197433 5.72758 0.125 5.90991 0.125H16.2224C16.4047 0.125 16.5796 0.197433 16.7085 0.326364C16.8375 0.455295 16.9099 0.630164 16.9099 0.8125ZM2.47241 0.125H1.09741C0.915076 0.125 0.740208 0.197433 0.611276 0.326364C0.482345 0.455295 0.409912 0.630164 0.409912 0.8125V2.1875C0.409912 2.36984 0.482345 2.5447 0.611276 2.67364C0.740208 2.80257 0.915076 2.875 1.09741 2.875H2.47241C2.65475 2.875 2.82962 2.80257 2.95855 2.67364C3.08748 2.5447 3.15991 2.36984 3.15991 2.1875V0.8125C3.15991 0.630164 3.08748 0.455295 2.95855 0.326364C2.82962 0.197433 2.65475 0.125 2.47241 0.125ZM16.2224 5.625H5.90991C5.72758 5.625 5.55271 5.69743 5.42378 5.82636C5.29485 5.9553 5.22241 6.13016 5.22241 6.3125V7.6875C5.22241 7.86984 5.29485 8.04471 5.42378 8.17364C5.55271 8.30257 5.72758 8.375 5.90991 8.375H16.2224C16.4047 8.375 16.5796 8.30257 16.7085 8.17364C16.8375 8.04471 16.9099 7.86984 16.9099 7.6875V6.3125C16.9099 6.13016 16.8375 5.9553 16.7085 5.82636C16.5796 5.69743 16.4047 5.625 16.2224 5.625ZM2.47241 5.625H1.09741C0.915076 5.625 0.740208 5.69743 0.611276 5.82636C0.482345 5.9553 0.409912 6.13016 0.409912 6.3125V7.6875C0.409912 7.86984 0.482345 8.04471 0.611276 8.17364C0.740208 8.30257 0.915076 8.375 1.09741 8.375H2.47241C2.65475 8.375 2.82962 8.30257 2.95855 8.17364C3.08748 8.04471 3.15991 7.86984 3.15991 7.6875V6.3125C3.15991 6.13016 3.08748 5.9553 2.95855 5.82636C2.82962 5.69743 2.65475 5.625 2.47241 5.625ZM16.2224 11.125H5.90991C5.72758 11.125 5.55271 11.1974 5.42378 11.3264C5.29485 11.4553 5.22241 11.6302 5.22241 11.8125V13.1875C5.22241 13.3698 5.29485 13.5447 5.42378 13.6736C5.55271 13.8026 5.72758 13.875 5.90991 13.875H16.2224C16.4047 13.875 16.5796 13.8026 16.7085 13.6736C16.8375 13.5447 16.9099 13.3698 16.9099 13.1875V11.8125C16.9099 11.6302 16.8375 11.4553 16.7085 11.3264C16.5796 11.1974 16.4047 11.125 16.2224 11.125ZM2.47241 11.125H1.09741C0.915076 11.125 0.740208 11.1974 0.611276 11.3264C0.482345 11.4553 0.409912 11.6302 0.409912 11.8125V13.1875C0.409912 13.3698 0.482345 13.5447 0.611276 13.6736C0.740208 13.8026 0.915076 13.875 1.09741 13.875H2.47241C2.65475 13.875 2.82962 13.8026 2.95855 13.6736C3.08748 13.5447 3.15991 13.3698 3.15991 13.1875V11.8125C3.15991 11.6302 3.08748 11.4553 2.95855 11.3264C2.82962 11.1974 2.65475 11.125 2.47241 11.125Z" fill="#696F79"/>
</svg>
