<svg width="19" height="18" viewBox="0 0 19 18" fill="none" xmlns="http://www.w3.org/2000/svg">
<path d="M9.42896 0.0625C7.66129 0.0625 5.93331 0.586675 4.46355 1.56874C2.99379 2.55081 1.84824 3.94665 1.17179 5.57977C0.495328 7.21288 0.318335 9.00992 0.663191 10.7436C1.00805 12.4773 1.85926 14.0698 3.10919 15.3198C4.35912 16.5697 5.95163 17.4209 7.68534 17.7658C9.41904 18.1106 11.2161 17.9336 12.8492 17.2572C14.4823 16.5807 15.8782 15.4352 16.8602 13.9654C17.8423 12.4956 18.3665 10.7677 18.3665 9C18.364 6.6304 17.4215 4.35856 15.746 2.683C14.0704 1.00743 11.7986 0.0650023 9.42896 0.0625ZM14.2415 9.6875H9.42896C9.24662 9.6875 9.07175 9.61507 8.94282 9.48614C8.81389 9.35721 8.74146 9.18234 8.74146 9V4.1875C8.74146 4.00516 8.81389 3.8303 8.94282 3.70136C9.07175 3.57243 9.24662 3.5 9.42896 3.5C9.6113 3.5 9.78616 3.57243 9.9151 3.70136C10.044 3.8303 10.1165 4.00516 10.1165 4.1875V8.3125H14.2415C14.4238 8.3125 14.5987 8.38493 14.7276 8.51386C14.8565 8.6428 14.929 8.81766 14.929 9C14.929 9.18234 14.8565 9.35721 14.7276 9.48614C14.5987 9.61507 14.4238 9.6875 14.2415 9.6875Z" fill="#696F79"/>
</svg>
