<svg width="17" height="18" viewBox="0 0 17 18" fill="none" xmlns="http://www.w3.org/2000/svg">
<path d="M12.8108 12.7812C12.8108 12.9852 12.7503 13.1846 12.637 13.3542C12.5237 13.5238 12.3626 13.6559 12.1742 13.734C11.9857 13.8121 11.7784 13.8325 11.5784 13.7927C11.3783 13.7529 11.1946 13.6547 11.0503 13.5105C10.9061 13.3662 10.8079 13.1825 10.7681 12.9824C10.7283 12.7824 10.7487 12.575 10.8268 12.3866C10.9048 12.1982 11.037 12.0371 11.2066 11.9238C11.3762 11.8105 11.5756 11.75 11.7795 11.75C12.053 11.75 12.3153 11.8587 12.5087 12.052C12.7021 12.2454 12.8108 12.5077 12.8108 12.7812ZM5.59204 6.25C5.796 6.25 5.99538 6.18952 6.16497 6.0762C6.33456 5.96289 6.46674 5.80183 6.54479 5.61339C6.62284 5.42496 6.64327 5.21761 6.60348 5.01756C6.56368 4.81752 6.46547 4.63377 6.32125 4.48955C6.17702 4.34532 5.99327 4.24711 5.79323 4.20731C5.59319 4.16752 5.38584 4.18795 5.1974 4.266C5.00896 4.34405 4.8479 4.47623 4.73459 4.64582C4.62127 4.81541 4.56079 5.01479 4.56079 5.21875C4.56079 5.49225 4.66944 5.75456 4.86284 5.94795C5.05623 6.14135 5.31854 6.25 5.59204 6.25ZM16.9358 2.125V15.875C16.9358 16.2397 16.7909 16.5894 16.5331 16.8473C16.2752 17.1051 15.9255 17.25 15.5608 17.25H1.81079C1.44612 17.25 1.09638 17.1051 0.838519 16.8473C0.580657 16.5894 0.435791 16.2397 0.435791 15.875V2.125C0.435791 1.76033 0.580657 1.41059 0.838519 1.15273C1.09638 0.894866 1.44612 0.75 1.81079 0.75H15.5608C15.9255 0.75 16.2752 0.894866 16.5331 1.15273C16.7909 1.41059 16.9358 1.76033 16.9358 2.125ZM3.18579 5.21875C3.18579 5.69466 3.32692 6.15989 3.59132 6.55559C3.85572 6.9513 4.23152 7.25971 4.67121 7.44184C5.11089 7.62396 5.59471 7.67161 6.06148 7.57876C6.52824 7.48592 6.957 7.25675 7.29352 6.92023C7.63004 6.58371 7.85921 6.15495 7.95206 5.68819C8.0449 5.22142 7.99725 4.7376 7.81513 4.29792C7.633 3.85823 7.32459 3.48243 6.92888 3.21803C6.53318 2.95362 6.06795 2.8125 5.59204 2.8125C4.95386 2.8125 4.34182 3.06602 3.89057 3.51727C3.43931 3.96853 3.18579 4.58057 3.18579 5.21875ZM14.1858 12.7812C14.1858 12.3053 14.0447 11.8401 13.7803 11.4444C13.5159 11.0487 13.1401 10.7403 12.7004 10.5582C12.2607 10.376 11.7769 10.3284 11.3101 10.4212C10.8433 10.5141 10.4146 10.7433 10.0781 11.0798C9.74154 11.4163 9.51237 11.845 9.41953 12.3118C9.32668 12.7786 9.37433 13.2624 9.55646 13.7021C9.73858 14.1418 10.047 14.5176 10.4427 14.782C10.8384 15.0464 11.3036 15.1875 11.7795 15.1875C12.4177 15.1875 13.0298 14.934 13.481 14.4827C13.9323 14.0315 14.1858 13.4194 14.1858 12.7812ZM13.9847 3.70109C13.9208 3.63717 13.845 3.58646 13.7616 3.55187C13.6781 3.51727 13.5886 3.49946 13.4983 3.49946C13.4079 3.49946 13.3185 3.51727 13.235 3.55187C13.1516 3.58646 13.0757 3.63717 13.0119 3.70109L3.38688 13.3261C3.25788 13.4551 3.18541 13.6301 3.18541 13.8125C3.18541 13.9949 3.25788 14.1699 3.38688 14.2989C3.51589 14.4279 3.69085 14.5004 3.87329 14.5004C4.05573 14.5004 4.23069 14.4279 4.3597 14.2989L13.9847 4.67391C14.0486 4.61006 14.0993 4.53423 14.1339 4.45077C14.1685 4.36731 14.1863 4.27785 14.1863 4.1875C14.1863 4.09715 14.1685 4.00769 14.1339 3.92423C14.0993 3.84077 14.0486 3.76494 13.9847 3.70109Z" fill="#696F79"/>
</svg>
