<svg width="20" height="18" viewBox="0 0 20 18" fill="none" xmlns="http://www.w3.org/2000/svg">
<path d="M19.5161 6.34432C19.3874 6.19734 19.2289 6.07947 19.051 5.99856C18.8732 5.91765 18.6802 5.87557 18.4848 5.87511H15.3593L10.7505 0.609715C10.6859 0.53656 10.6066 0.477971 10.5177 0.43784C10.4288 0.397708 10.3324 0.376953 10.2348 0.376953C10.1373 0.376953 10.0409 0.397708 9.95198 0.43784C9.86308 0.477971 9.78373 0.53656 9.71922 0.609715L5.11039 5.87511H1.98484C1.78896 5.87511 1.59534 5.91696 1.41695 5.99787C1.23856 6.07877 1.07951 6.19686 0.95046 6.34422C0.821408 6.49158 0.725331 6.66481 0.668662 6.85231C0.611993 7.03982 0.59604 7.23726 0.621872 7.43143L1.81297 16.3698C1.85713 16.7001 2.01976 17.0032 2.27063 17.2226C2.5215 17.442 2.84352 17.5628 3.17679 17.5626H17.2929C17.6262 17.5628 17.9482 17.442 18.1991 17.2226C18.4499 17.0032 18.6126 16.7001 18.6567 16.3698L19.8487 7.43229C19.8741 7.23772 19.8575 7.03995 19.8002 6.8523C19.7428 6.66464 19.6459 6.49144 19.5161 6.34432ZM6.24734 14.8126C6.22415 14.8139 6.20092 14.8139 6.17773 14.8126C6.0067 14.8135 5.8415 14.7505 5.71437 14.6361C5.58725 14.5217 5.50733 14.364 5.49023 14.1939L5.00898 9.38136C4.99075 9.19993 5.04533 9.01869 5.16073 8.87751C5.27612 8.73633 5.44287 8.64678 5.62429 8.62854C5.80572 8.61031 5.98696 8.66489 6.12814 8.78029C6.26932 8.89568 6.35887 9.06243 6.37711 9.24386L6.85836 14.0564C6.87761 14.2377 6.82405 14.4192 6.70947 14.561C6.59488 14.7028 6.42865 14.7933 6.24734 14.8126ZM10.9223 14.1251C10.9223 14.3074 10.8499 14.4823 10.721 14.6112C10.592 14.7402 10.4172 14.8126 10.2348 14.8126C10.0525 14.8126 9.87764 14.7402 9.7487 14.6112C9.61977 14.4823 9.54734 14.3074 9.54734 14.1251V9.31261C9.54734 9.13027 9.61977 8.9554 9.7487 8.82647C9.87764 8.69754 10.0525 8.62511 10.2348 8.62511C10.4172 8.62511 10.592 8.69754 10.721 8.82647C10.8499 8.9554 10.9223 9.13027 10.9223 9.31261V14.1251ZM6.93742 5.87511L10.2348 2.10675L13.5323 5.87511H6.93742ZM15.4564 9.38136L14.9752 14.1939C14.9581 14.3633 14.8788 14.5204 14.7526 14.6347C14.6264 14.749 14.4622 14.8124 14.292 14.8126C14.2688 14.8139 14.2455 14.8139 14.2223 14.8126C14.1325 14.8036 14.0453 14.7769 13.9658 14.7342C13.8863 14.6915 13.8159 14.6335 13.7588 14.5636C13.7016 14.4937 13.6588 14.4133 13.6328 14.3268C13.6068 14.2404 13.598 14.1496 13.607 14.0598L14.0883 9.24729C14.1065 9.06587 14.1961 8.89912 14.3372 8.78372C14.4784 8.66833 14.6597 8.61375 14.8411 8.63198C15.0225 8.65021 15.1893 8.73977 15.3047 8.88095C15.4201 9.02213 15.4746 9.20337 15.4564 9.38479V9.38136Z" fill="#696F79"/>
</svg>
