<svg width="45" height="45" viewBox="0 0 45 45" fill="none" xmlns="http://www.w3.org/2000/svg">
<rect width="45" height="45" rx="8" fill="#F6F6F6"/>
<path d="M20.9375 21.7188C20.9375 22.0278 20.8459 22.3299 20.6742 22.5868C20.5025 22.8438 20.2585 23.0441 19.9729 23.1623C19.6874 23.2806 19.3733 23.3115 19.0702 23.2512C18.7671 23.1909 18.4887 23.0421 18.2701 22.8236C18.0516 22.6051 17.9028 22.3267 17.8425 22.0236C17.7822 21.7205 17.8132 21.4063 17.9314 21.1208C18.0497 20.8353 18.25 20.5913 18.5069 20.4196C18.7639 20.2479 19.066 20.1562 19.375 20.1562C19.7894 20.1562 20.1868 20.3209 20.4799 20.6139C20.7729 20.9069 20.9375 21.3043 20.9375 21.7188ZM32.6562 15.4688V29.5312C32.6562 29.9457 32.4916 30.3431 32.1986 30.6361C31.9056 30.9291 31.5082 31.0938 31.0938 31.0938H13.9062C13.4918 31.0938 13.0944 30.9291 12.8014 30.6361C12.5084 30.3431 12.3438 29.9457 12.3438 29.5312V15.4688C12.3438 15.0543 12.5084 14.6569 12.8014 14.3639C13.0944 14.0709 13.4918 13.9062 13.9062 13.9062H31.0938C31.5082 13.9062 31.9056 14.0709 32.1986 14.3639C32.4916 14.6569 32.6562 15.0543 32.6562 15.4688ZM23.2568 26.2109C23.004 25.267 22.4046 24.4531 21.5781 23.9316C22.017 23.4953 22.3165 22.9386 22.4386 22.3319C22.5607 21.7252 22.4999 21.0959 22.2639 20.5238C22.0279 19.9517 21.6274 19.4625 21.1131 19.1183C20.5988 18.7741 19.9939 18.5904 19.375 18.5904C18.7561 18.5904 18.1512 18.7741 17.6369 19.1183C17.1226 19.4625 16.7221 19.9517 16.4861 20.5238C16.2501 21.0959 16.1893 21.7252 16.3114 22.3319C16.4335 22.9386 16.733 23.4953 17.1719 23.9316C16.346 24.4537 15.7467 25.2673 15.4932 26.2109C15.4414 26.4117 15.4714 26.6247 15.5767 26.8033C15.682 26.9819 15.854 27.1113 16.0547 27.1631C16.2554 27.2149 16.4685 27.1848 16.6471 27.0795C16.8256 26.9742 16.955 26.8023 17.0068 26.6016C17.2646 25.6006 18.2822 24.8438 19.375 24.8438C20.4678 24.8438 21.4863 25.5986 21.7432 26.6016C21.795 26.8023 21.9244 26.9742 22.1029 27.0795C22.2815 27.1848 22.4946 27.2149 22.6953 27.1631C22.896 27.1113 23.068 26.9819 23.1733 26.8033C23.2786 26.6247 23.3086 26.4117 23.2568 26.2109ZM29.5312 24.0625C29.5312 23.8553 29.4489 23.6566 29.3024 23.5101C29.1559 23.3636 28.9572 23.2812 28.75 23.2812H24.8438C24.6365 23.2812 24.4378 23.3636 24.2913 23.5101C24.1448 23.6566 24.0625 23.8553 24.0625 24.0625C24.0625 24.2697 24.1448 24.4684 24.2913 24.6149C24.4378 24.7614 24.6365 24.8438 24.8438 24.8438H28.75C28.9572 24.8438 29.1559 24.7614 29.3024 24.6149C29.4489 24.4684 29.5312 24.2697 29.5312 24.0625ZM29.5312 20.9375C29.5312 20.7303 29.4489 20.5316 29.3024 20.3851C29.1559 20.2386 28.9572 20.1562 28.75 20.1562H24.8438C24.6365 20.1562 24.4378 20.2386 24.2913 20.3851C24.1448 20.5316 24.0625 20.7303 24.0625 20.9375C24.0625 21.1447 24.1448 21.3434 24.2913 21.4899C24.4378 21.6364 24.6365 21.7188 24.8438 21.7188H28.75C28.9572 21.7188 29.1559 21.6364 29.3024 21.4899C29.4489 21.3434 29.5312 21.1447 29.5312 20.9375Z" fill="#1DBF73"/>
</svg>
