<svg width="14" height="15" viewBox="0 0 14 15" fill="none" xmlns="http://www.w3.org/2000/svg">
<path d="M7 0.0625C5.35954 0.0642576 3.78681 0.680501 2.62683 1.77604C1.46685 2.87157 0.814361 4.35693 0.8125 5.90625C0.8125 10.9066 6.4375 14.6832 6.67727 14.8412C6.77184 14.9038 6.88452 14.9374 7 14.9374C7.11548 14.9374 7.22816 14.9038 7.32273 14.8412C7.5625 14.6832 13.1875 10.9066 13.1875 5.90625C13.1856 4.35693 12.5331 2.87157 11.3732 1.77604C10.2132 0.680501 8.64046 0.0642576 7 0.0625ZM7 3.78125C7.44501 3.78125 7.88002 3.90588 8.25003 4.13938C8.62004 4.37288 8.90843 4.70475 9.07873 5.09305C9.24903 5.48134 9.29358 5.90861 9.20677 6.32082C9.11995 6.73303 8.90566 7.11167 8.59099 7.40885C8.27632 7.70604 7.87541 7.90843 7.43895 7.99042C7.0025 8.07241 6.5501 8.03033 6.13896 7.86949C5.72783 7.70866 5.37643 7.43629 5.12919 7.08684C4.88196 6.73738 4.75 6.32654 4.75 5.90625C4.75 5.34266 4.98705 4.80216 5.40901 4.40365C5.83097 4.00513 6.40326 3.78125 7 3.78125Z" fill="#8692A6"/>
</svg>
