<svg width="45" height="45" viewBox="0 0 45 45" fill="none" xmlns="http://www.w3.org/2000/svg">
<rect width="45" height="45" rx="8" fill="#F6F6F6"/>
<path d="M23.834 23.0527L19.9277 26.959C19.8185 27.0684 19.6792 27.1429 19.5276 27.1731C19.376 27.2033 19.2188 27.1878 19.0759 27.1286C18.9331 27.0694 18.8111 26.9692 18.7252 26.8406C18.6394 26.712 18.5936 26.5609 18.5938 26.4062V23.2812H12.3438C12.1365 23.2812 11.9378 23.1989 11.7913 23.0524C11.6448 22.9059 11.5625 22.7072 11.5625 22.5C11.5625 22.2928 11.6448 22.0941 11.7913 21.9476C11.9378 21.8011 12.1365 21.7188 12.3438 21.7188H18.5938V18.5938C18.5936 18.4391 18.6394 18.288 18.7252 18.1594C18.8111 18.0308 18.9331 17.9306 19.0759 17.8714C19.2188 17.8122 19.376 17.7967 19.5276 17.8269C19.6792 17.8571 19.8185 17.9316 19.9277 18.041L23.834 21.9473C23.9066 22.0198 23.9642 22.106 24.0036 22.2008C24.0429 22.2957 24.0631 22.3973 24.0631 22.5C24.0631 22.6027 24.0429 22.7043 24.0036 22.7992C23.9642 22.894 23.9066 22.9802 23.834 23.0527ZM28.75 13.125H23.2812C23.074 13.125 22.8753 13.2073 22.7288 13.3538C22.5823 13.5003 22.5 13.699 22.5 13.9062C22.5 14.1135 22.5823 14.3122 22.7288 14.4587C22.8753 14.6052 23.074 14.6875 23.2812 14.6875H28.75V30.3125H23.2812C23.074 30.3125 22.8753 30.3948 22.7288 30.5413C22.5823 30.6878 22.5 30.8865 22.5 31.0938C22.5 31.301 22.5823 31.4997 22.7288 31.6462C22.8753 31.7927 23.074 31.875 23.2812 31.875H28.75C29.1644 31.875 29.5618 31.7104 29.8549 31.4174C30.1479 31.1243 30.3125 30.7269 30.3125 30.3125V14.6875C30.3125 14.2731 30.1479 13.8757 29.8549 13.5826C29.5618 13.2896 29.1644 13.125 28.75 13.125Z" fill="#1DBF73"/>
</svg>
