<svg width="45" height="45" viewBox="0 0 45 45" fill="none" xmlns="http://www.w3.org/2000/svg">
<rect width="45" height="45" rx="8" fill="#F6F6F6"/>
<path d="M31.0938 19.375C31.0946 17.9267 30.7295 16.5018 30.0322 15.2324C29.3349 13.9631 28.3282 12.8905 27.1055 12.1144C25.8828 11.3383 24.4838 10.8837 23.0384 10.793C21.593 10.7023 20.1481 10.9783 18.8379 11.5954C17.5278 12.2126 16.3948 13.1508 15.5443 14.323C14.6938 15.4952 14.1533 16.8633 13.9731 18.3003C13.7928 19.7373 13.9787 21.1965 14.5133 22.5425C15.048 23.8884 15.9141 25.0774 17.0313 25.999V33.4375C17.0312 33.5707 17.0651 33.7018 17.13 33.8182C17.1948 33.9346 17.2883 34.0325 17.4016 34.1025C17.515 34.1726 17.6443 34.2125 17.7774 34.2185C17.9105 34.2245 18.043 34.1963 18.1621 34.1367L22.5 31.9726L26.8389 34.1416C26.9476 34.1936 27.0669 34.22 27.1875 34.2187C27.3947 34.2187 27.5934 34.1364 27.7399 33.9899C27.8864 33.8434 27.9688 33.6447 27.9688 33.4375V25.999C28.9462 25.1939 29.7334 24.1825 30.2737 23.0372C30.814 21.892 31.094 20.6413 31.0938 19.375ZM15.4688 19.375C15.4688 17.9843 15.8811 16.6249 16.6537 15.4686C17.4263 14.3123 18.5245 13.4111 19.8093 12.8789C21.0941 12.3468 22.5078 12.2075 23.8717 12.4788C25.2357 12.7501 26.4885 13.4198 27.4718 14.4031C28.4552 15.3865 29.1248 16.6393 29.3961 18.0032C29.6675 19.3672 29.5282 20.7809 28.996 22.0657C28.4639 23.3505 27.5626 24.4486 26.4064 25.2212C25.2501 25.9938 23.8907 26.4062 22.5 26.4062C20.6358 26.4042 18.8486 25.6627 17.5304 24.3445C16.2123 23.0264 15.4708 21.2391 15.4688 19.375ZM17.0313 19.375C17.0313 18.2934 17.352 17.236 17.9529 16.3367C18.5538 15.4374 19.4079 14.7364 20.4072 14.3225C21.4065 13.9086 22.5061 13.8003 23.5669 14.0113C24.6277 14.2223 25.6022 14.7432 26.367 15.508C27.1318 16.2728 27.6527 17.2472 27.8637 18.3081C28.0747 19.3689 27.9664 20.4685 27.5525 21.4678C27.1386 22.4671 26.4376 23.3212 25.5383 23.9221C24.6389 24.523 23.5816 24.8437 22.5 24.8437C21.0501 24.8422 19.66 24.2655 18.6347 23.2403C17.6095 22.215 17.0328 20.8249 17.0313 19.375Z" fill="#1DBF73"/>
</svg>
