<svg width="28" height="28" viewBox="0 0 28 28" fill="none" xmlns="http://www.w3.org/2000/svg">
<path d="M15.5231 13.9356C15.5231 14.2496 15.43 14.5566 15.2555 14.8177C15.081 15.0788 14.8331 15.2823 14.543 15.4024C14.2528 15.5226 13.9336 15.554 13.6256 15.4928C13.3176 15.4315 13.0347 15.2803 12.8127 15.0583C12.5907 14.8362 12.4394 14.5533 12.3782 14.2453C12.3169 13.9373 12.3484 13.6181 12.4685 13.328C12.5887 13.0379 12.7922 12.7899 13.0533 12.6155C13.3144 12.441 13.6214 12.3479 13.9354 12.3479C14.3565 12.3479 14.7603 12.5152 15.058 12.8129C15.3558 13.1107 15.5231 13.5145 15.5231 13.9356ZM8.1138 12.3479C7.79978 12.3479 7.49282 12.441 7.23172 12.6155C6.97062 12.7899 6.76712 13.0379 6.64696 13.328C6.52679 13.6181 6.49534 13.9373 6.55661 14.2453C6.61787 14.5533 6.76908 14.8362 6.99113 15.0583C7.21317 15.2803 7.49607 15.4315 7.80405 15.4928C8.11204 15.554 8.43127 15.5226 8.72139 15.4024C9.0115 15.2823 9.25947 15.0788 9.43393 14.8177C9.60839 14.5566 9.7015 14.2496 9.7015 13.9356C9.7015 13.5145 9.53423 13.1107 9.23648 12.8129C8.93872 12.5152 8.53489 12.3479 8.1138 12.3479ZM19.7569 12.3479C19.4429 12.3479 19.136 12.441 18.8749 12.6155C18.6138 12.7899 18.4103 13.0379 18.2901 13.328C18.1699 13.6181 18.1385 13.9373 18.1998 14.2453C18.261 14.5533 18.4122 14.8362 18.6343 15.0583C18.8563 15.2803 19.1392 15.4315 19.4472 15.4928C19.7552 15.554 20.0744 15.5226 20.3645 15.4024C20.6546 15.2823 20.9026 15.0788 21.0771 14.8177C21.2515 14.5566 21.3446 14.2496 21.3446 13.9356C21.3446 13.5145 21.1774 13.1107 20.8796 12.8129C20.5819 12.5152 20.178 12.3479 19.7569 12.3479ZM27.6955 13.9356C27.696 16.3112 27.0814 18.6465 25.9116 20.7142C24.7418 22.7819 23.0567 24.5115 21.0201 25.7346C18.9835 26.9578 16.665 27.6328 14.2901 27.6941C11.9153 27.7553 9.56504 27.2007 7.46814 26.0842L2.96303 27.5858C2.59004 27.7102 2.18977 27.7283 1.80709 27.638C1.42441 27.5477 1.07444 27.3526 0.796416 27.0745C0.518389 26.7965 0.323286 26.4465 0.232976 26.0639C0.142666 25.6812 0.160718 25.2809 0.285109 24.9079L1.78681 20.4028C0.805278 18.5574 0.257056 16.5127 0.183757 14.4238C0.110459 12.3349 0.51401 10.2567 1.36378 8.34706C2.21355 6.4374 3.4872 4.74643 5.08806 3.4025C6.68892 2.05857 8.57491 1.09701 10.6029 0.590792C12.6308 0.0845771 14.7475 0.0470186 16.7921 0.480967C18.8368 0.914915 20.7557 1.80896 22.4032 3.09525C24.0508 4.38154 25.3836 6.02626 26.3006 7.90456C27.2176 9.78287 27.6946 11.8454 27.6955 13.9356ZM25.5785 13.9356C25.578 12.1496 25.1666 10.3876 24.3762 8.78607C23.5858 7.18449 22.4375 5.78623 21.0202 4.69944C19.603 3.61266 17.9547 2.86649 16.2028 2.51867C14.451 2.17086 12.6427 2.23071 10.9177 2.6936C9.19275 3.15649 7.59739 4.01002 6.25507 5.18814C4.91275 6.36626 3.85945 7.83739 3.17666 9.48773C2.49387 11.1381 2.1999 12.9233 2.31749 14.7055C2.43508 16.4876 2.96108 18.2188 3.85479 19.7651C3.9298 19.8949 3.97637 20.0392 3.99143 20.1884C4.00648 20.3375 3.98967 20.4882 3.94211 20.6304L2.29223 25.5787L7.24056 23.9288C7.34834 23.8921 7.46143 23.8733 7.5753 23.8733C7.7612 23.8736 7.94374 23.9229 8.10454 24.0162C9.87456 25.0403 11.8831 25.5801 13.928 25.5814C15.973 25.5827 17.9822 25.0454 19.7535 24.0235C21.5248 23.0017 22.9957 21.5313 24.0183 19.7604C25.0409 17.9895 25.579 15.9805 25.5785 13.9356Z" fill="#7A7879"/>
</svg>
