<svg width="366" height="190" viewBox="0 0 366 190" fill="none" xmlns="http://www.w3.org/2000/svg">
<g filter="url(#filter0_d_4971_243)">
<rect x="35" y="32" width="296" height="120" rx="8" fill="white"/>
</g>
<path d="M61.228 65.16C60.3533 65.16 59.516 65.0373 58.716 64.792C57.916 64.536 57.2813 64.2107 56.812 63.816L57.532 62.2C57.98 62.552 58.5346 62.8453 59.196 63.08C59.8573 63.3147 60.5346 63.432 61.228 63.432C61.8146 63.432 62.2893 63.368 62.652 63.24C63.0146 63.112 63.2813 62.9413 63.452 62.728C63.6226 62.504 63.708 62.2533 63.708 61.976C63.708 61.6347 63.5853 61.3627 63.34 61.16C63.0946 60.9467 62.7746 60.7813 62.38 60.664C61.996 60.536 61.564 60.4187 61.084 60.312C60.6146 60.2053 60.14 60.0827 59.66 59.944C59.1906 59.7947 58.7586 59.608 58.364 59.384C57.98 59.1493 57.6653 58.84 57.42 58.456C57.1746 58.072 57.052 57.5813 57.052 56.984C57.052 56.376 57.212 55.8213 57.532 55.32C57.8626 54.808 58.3586 54.4027 59.02 54.104C59.692 53.7947 60.54 53.64 61.564 53.64C62.236 53.64 62.9026 53.7253 63.564 53.896C64.2253 54.0667 64.8013 54.312 65.292 54.632L64.636 56.248C64.1346 55.9493 63.6173 55.7307 63.084 55.592C62.5506 55.4427 62.0386 55.368 61.548 55.368C60.972 55.368 60.5026 55.4373 60.14 55.576C59.788 55.7147 59.5266 55.896 59.356 56.12C59.196 56.344 59.116 56.6 59.116 56.888C59.116 57.2293 59.2333 57.5067 59.468 57.72C59.7133 57.9227 60.028 58.0827 60.412 58.2C60.8066 58.3173 61.244 58.4347 61.724 58.552C62.204 58.6587 62.6786 58.7813 63.148 58.92C63.628 59.0587 64.06 59.24 64.444 59.464C64.8386 59.688 65.1533 59.992 65.388 60.376C65.6333 60.76 65.756 61.2453 65.756 61.832C65.756 62.4293 65.5906 62.984 65.26 63.496C64.94 63.9973 64.444 64.4027 63.772 64.712C63.1 65.0107 62.252 65.16 61.228 65.16ZM72.5545 56.36C73.2371 56.36 73.8451 56.4933 74.3785 56.76C74.9225 57.0267 75.3491 57.4373 75.6585 57.992C75.9678 58.536 76.1225 59.24 76.1225 60.104V65H74.1225V60.36C74.1225 59.6027 73.9411 59.0373 73.5785 58.664C73.2265 58.2907 72.7305 58.104 72.0905 58.104C71.6211 58.104 71.2051 58.2 70.8425 58.392C70.4798 58.584 70.1971 58.872 69.9945 59.256C69.8025 59.6293 69.7065 60.104 69.7065 60.68V65H67.7065V53.128H69.7065V58.76L69.2745 58.056C69.5731 57.512 70.0051 57.096 70.5705 56.808C71.1465 56.5093 71.8078 56.36 72.5545 56.36ZM84.0036 65V63.272L83.8916 62.904V59.88C83.8916 59.2933 83.7156 58.84 83.3636 58.52C83.0116 58.1893 82.4782 58.024 81.7636 58.024C81.2836 58.024 80.8089 58.0987 80.3396 58.248C79.8809 58.3973 79.4916 58.6053 79.1716 58.872L78.3876 57.416C78.8462 57.064 79.3902 56.8027 80.0196 56.632C80.6596 56.4507 81.3209 56.36 82.0036 56.36C83.2409 56.36 84.1956 56.6587 84.8676 57.256C85.5502 57.8427 85.8916 58.7547 85.8916 59.992V65H84.0036ZM81.3156 65.112C80.6756 65.112 80.1156 65.0053 79.6356 64.792C79.1556 64.568 78.7822 64.264 78.5156 63.88C78.2596 63.4853 78.1316 63.0427 78.1316 62.552C78.1316 62.072 78.2436 61.64 78.4676 61.256C78.7022 60.872 79.0809 60.568 79.6036 60.344C80.1262 60.12 80.8196 60.008 81.6836 60.008H84.1636V61.336H81.8276C81.1449 61.336 80.6862 61.448 80.4516 61.672C80.2169 61.8853 80.0996 62.152 80.0996 62.472C80.0996 62.8347 80.2436 63.1227 80.5316 63.336C80.8196 63.5493 81.2196 63.656 81.7316 63.656C82.2222 63.656 82.6596 63.544 83.0436 63.32C83.4382 63.096 83.7209 62.7653 83.8916 62.328L84.2276 63.528C84.0356 64.0293 83.6889 64.4187 83.1876 64.696C82.6969 64.9733 82.0729 65.112 81.3156 65.112ZM88.5383 65V56.456H90.4423V58.808L90.2183 58.12C90.4743 57.544 90.8743 57.1067 91.4183 56.808C91.973 56.5093 92.661 56.36 93.4823 56.36V58.264C93.397 58.2427 93.317 58.232 93.2423 58.232C93.1677 58.2213 93.093 58.216 93.0183 58.216C92.261 58.216 91.6583 58.44 91.2103 58.888C90.7623 59.3253 90.5383 59.9813 90.5383 60.856V65H88.5383ZM99.1968 65.112C98.2475 65.112 97.4155 64.9253 96.7008 64.552C95.9968 64.168 95.4475 63.6453 95.0528 62.984C94.6688 62.3227 94.4768 61.5707 94.4768 60.728C94.4768 59.8747 94.6635 59.1227 95.0368 58.472C95.4208 57.8107 95.9435 57.2933 96.6048 56.92C97.2768 56.5467 98.0395 56.36 98.8928 56.36C99.7248 56.36 100.466 56.5413 101.117 56.904C101.767 57.2667 102.279 57.7787 102.653 58.44C103.026 59.1013 103.213 59.88 103.213 60.776C103.213 60.8613 103.207 60.9573 103.197 61.064C103.197 61.1707 103.191 61.272 103.181 61.368H96.0608V60.04H102.125L101.341 60.456C101.351 59.9653 101.25 59.5333 101.037 59.16C100.823 58.7867 100.53 58.4933 100.157 58.28C99.7942 58.0667 99.3728 57.96 98.8928 57.96C98.4022 57.96 97.9702 58.0667 97.5968 58.28C97.2342 58.4933 96.9462 58.792 96.7328 59.176C96.5302 59.5493 96.4288 59.992 96.4288 60.504V60.824C96.4288 61.336 96.5462 61.7893 96.7808 62.184C97.0155 62.5787 97.3462 62.8827 97.7728 63.096C98.1995 63.3093 98.6902 63.416 99.2448 63.416C99.7248 63.416 100.157 63.3413 100.541 63.192C100.925 63.0427 101.266 62.808 101.565 62.488L102.637 63.72C102.253 64.168 101.767 64.5147 101.181 64.76C100.605 64.9947 99.9435 65.112 99.1968 65.112ZM113.14 65.16C112.361 65.16 111.662 65.032 111.044 64.776C110.425 64.52 109.94 64.168 109.588 63.72C109.236 63.272 109.06 62.7547 109.06 62.168C109.06 61.6347 109.177 61.1547 109.412 60.728C109.646 60.3013 110.02 59.896 110.532 59.512C111.044 59.1173 111.7 58.7227 112.5 58.328C113.129 58.0187 113.62 57.7467 113.972 57.512C114.334 57.2773 114.585 57.0533 114.724 56.84C114.873 56.6267 114.948 56.4027 114.948 56.168C114.948 55.848 114.836 55.592 114.612 55.4C114.388 55.1973 114.068 55.096 113.652 55.096C113.204 55.096 112.852 55.208 112.596 55.432C112.35 55.6453 112.228 55.928 112.228 56.28C112.228 56.4613 112.26 56.6373 112.324 56.808C112.398 56.9787 112.526 57.1707 112.708 57.384C112.889 57.5973 113.15 57.8693 113.492 58.2L119.412 63.88L118.308 65.176L111.908 59.032C111.545 58.68 111.252 58.3547 111.028 58.056C110.804 57.7573 110.644 57.4693 110.548 57.192C110.452 56.904 110.404 56.6107 110.404 56.312C110.404 55.7893 110.537 55.3307 110.804 54.936C111.07 54.5307 111.449 54.2213 111.94 54.008C112.43 53.784 113.001 53.672 113.652 53.672C114.26 53.672 114.782 53.7733 115.22 53.976C115.668 54.168 116.014 54.4507 116.26 54.824C116.516 55.1867 116.644 55.624 116.644 56.136C116.644 56.584 116.532 57 116.308 57.384C116.084 57.7573 115.732 58.1147 115.252 58.456C114.782 58.7973 114.153 59.1547 113.364 59.528C112.777 59.816 112.313 60.088 111.972 60.344C111.63 60.6 111.385 60.856 111.236 61.112C111.086 61.368 111.012 61.6507 111.012 61.96C111.012 62.2693 111.102 62.5413 111.284 62.776C111.476 63.0107 111.742 63.1973 112.084 63.336C112.425 63.464 112.825 63.528 113.284 63.528C113.966 63.528 114.585 63.3787 115.14 63.08C115.705 62.7707 116.18 62.312 116.564 61.704C116.948 61.096 117.225 60.344 117.396 59.448L119.012 59.976C118.788 61.0533 118.398 61.9813 117.844 62.76C117.3 63.528 116.628 64.12 115.828 64.536C115.028 64.952 114.132 65.16 113.14 65.16ZM127.707 58.456H133.275V60.168H127.707V58.456ZM127.867 63.256H134.187V65H125.787V53.8H133.963V55.544H127.867V63.256ZM141.579 65V63.272L141.467 62.904V59.88C141.467 59.2933 141.291 58.84 140.939 58.52C140.587 58.1893 140.054 58.024 139.339 58.024C138.859 58.024 138.385 58.0987 137.915 58.248C137.457 58.3973 137.067 58.6053 136.747 58.872L135.963 57.416C136.422 57.064 136.966 56.8027 137.595 56.632C138.235 56.4507 138.897 56.36 139.579 56.36C140.817 56.36 141.771 56.6587 142.443 57.256C143.126 57.8427 143.467 58.7547 143.467 59.992V65H141.579ZM138.891 65.112C138.251 65.112 137.691 65.0053 137.211 64.792C136.731 64.568 136.358 64.264 136.091 63.88C135.835 63.4853 135.707 63.0427 135.707 62.552C135.707 62.072 135.819 61.64 136.043 61.256C136.278 60.872 136.657 60.568 137.179 60.344C137.702 60.12 138.395 60.008 139.259 60.008H141.739V61.336H139.403C138.721 61.336 138.262 61.448 138.027 61.672C137.793 61.8853 137.675 62.152 137.675 62.472C137.675 62.8347 137.819 63.1227 138.107 63.336C138.395 63.5493 138.795 63.656 139.307 63.656C139.798 63.656 140.235 63.544 140.619 63.32C141.014 63.096 141.297 62.7653 141.467 62.328L141.803 63.528C141.611 64.0293 141.265 64.4187 140.763 64.696C140.273 64.9733 139.649 65.112 138.891 65.112ZM146.114 65V56.456H148.018V58.808L147.794 58.12C148.05 57.544 148.45 57.1067 148.994 56.808C149.549 56.5093 150.237 56.36 151.058 56.36V58.264C150.973 58.2427 150.893 58.232 150.818 58.232C150.743 58.2213 150.669 58.216 150.594 58.216C149.837 58.216 149.234 58.44 148.786 58.888C148.338 59.3253 148.114 59.9813 148.114 60.856V65H146.114ZM157.683 56.36C158.365 56.36 158.973 56.4933 159.507 56.76C160.051 57.0267 160.477 57.4373 160.787 57.992C161.096 58.536 161.251 59.24 161.251 60.104V65H159.251V60.36C159.251 59.6027 159.069 59.0373 158.707 58.664C158.355 58.2907 157.859 58.104 157.219 58.104C156.749 58.104 156.333 58.2 155.971 58.392C155.608 58.584 155.325 58.872 155.123 59.256C154.931 59.6293 154.835 60.104 154.835 60.68V65H152.835V56.456H154.739V58.76L154.403 58.056C154.701 57.512 155.133 57.096 155.699 56.808C156.275 56.5093 156.936 56.36 157.683 56.36Z" fill="black"/>
<path d="M197.619 91H168.381C164.711 91 161.736 93.975 161.736 97.6449V126.883C161.736 130.552 164.711 133.527 168.381 133.527H197.619C201.289 133.527 204.264 130.552 204.264 126.883V97.6449C204.264 93.975 201.289 91 197.619 91Z" fill="#25D366"/>
<path fill-rule="evenodd" clip-rule="evenodd" d="M190.442 104.688C188.449 102.695 185.791 101.632 183 101.632C177.153 101.632 172.368 106.416 172.368 112.264C172.368 114.124 172.9 115.985 173.83 117.58L172.368 122.896L177.95 121.434C179.545 122.231 181.272 122.763 183 122.763C188.848 122.763 193.632 117.978 193.632 112.131C193.632 109.34 192.436 106.682 190.442 104.688ZM183 121.035C181.405 121.035 179.81 120.636 178.481 119.839L178.216 119.706L174.893 120.636L175.824 117.447L175.558 117.048C174.627 115.586 174.229 113.991 174.229 112.397C174.229 107.612 178.216 103.625 183 103.625C185.392 103.625 187.519 104.556 189.246 106.15C190.974 107.878 191.771 110.004 191.771 112.397C191.771 117.048 187.917 121.035 183 121.035ZM187.784 114.39C187.519 114.257 186.19 113.593 185.924 113.593C185.658 113.46 185.525 113.46 185.392 113.726C185.259 113.991 184.728 114.523 184.595 114.789C184.462 114.922 184.329 114.922 184.063 114.922C183.797 114.789 183 114.523 181.937 113.593C181.139 112.928 180.608 111.998 180.475 111.732C180.342 111.466 180.475 111.333 180.608 111.201C180.741 111.068 180.874 110.935 181.007 110.802C181.139 110.669 181.139 110.536 181.272 110.403C181.405 110.27 181.272 110.137 181.272 110.004C181.272 109.872 180.741 108.543 180.475 108.011C180.342 107.612 180.076 107.612 179.943 107.612C179.81 107.612 179.678 107.612 179.412 107.612C179.279 107.612 179.013 107.612 178.747 107.878C178.481 108.144 177.817 108.808 177.817 110.137C177.817 111.466 178.747 112.662 178.88 112.928C179.013 113.061 180.741 115.852 183.399 116.915C185.658 117.845 186.057 117.58 186.588 117.58C187.12 117.58 188.183 116.915 188.316 116.384C188.582 115.719 188.582 115.187 188.449 115.187C188.316 114.523 188.05 114.523 187.784 114.39Z" fill="white"/>
<path d="M143.751 91H114.513C110.843 91 107.868 93.975 107.868 97.6449V126.883C107.868 130.552 110.843 133.527 114.513 133.527H143.751C147.421 133.527 150.396 130.552 150.396 126.883V97.6449C150.396 93.975 147.421 91 143.751 91Z" fill="#1877F2"/>
<path d="M139.764 112.264C139.764 106.416 134.979 101.632 129.132 101.632C123.284 101.632 118.5 106.416 118.5 112.264C118.5 117.58 122.354 121.965 127.404 122.763V115.32H124.746V112.264H127.404V109.872C127.404 107.214 128.999 105.752 131.391 105.752C132.587 105.752 133.783 106.017 133.783 106.017V108.675H132.454C131.125 108.675 130.727 109.473 130.727 110.27V112.264H133.65L133.119 115.32H130.594V122.896C135.91 122.098 139.764 117.58 139.764 112.264Z" fill="white"/>
<path d="M89.8826 91H60.6449C56.975 91 54 93.975 54 97.6449V126.883C54 130.552 56.975 133.527 60.6449 133.527H89.8826C93.5524 133.527 96.5275 130.552 96.5275 126.883V97.6449C96.5275 93.975 93.5524 91 89.8826 91Z" fill="#2867B2"/>
<path d="M69.4162 122.896H64.8976V108.675H69.4162V122.896ZM67.1569 106.682C65.695 106.682 64.6318 105.619 64.6318 104.157C64.6318 102.695 65.8279 101.632 67.1569 101.632C68.6188 101.632 69.682 102.695 69.682 104.157C69.682 105.619 68.6188 106.682 67.1569 106.682ZM85.8956 122.896H81.377V115.187C81.377 112.928 80.4467 112.264 79.1177 112.264C77.7888 112.264 76.4598 113.327 76.4598 115.32V122.896H71.9412V108.675H76.194V110.669C76.5927 109.739 78.1875 108.277 80.4467 108.277C82.9718 108.277 85.6298 109.739 85.6298 114.124V122.896H85.8956Z" fill="white"/>
<path d="M251.487 91H222.249C218.58 91 215.604 93.975 215.604 97.6449V126.883C215.604 130.552 218.58 133.527 222.249 133.527H251.487C255.157 133.527 258.132 130.552 258.132 126.883V97.6449C258.132 93.975 255.157 91 251.487 91Z" fill="#1DA1F2"/>
<path d="M247.5 105.619C246.703 106.017 245.905 106.15 244.975 106.283C245.905 105.752 246.57 104.954 246.836 103.891C246.038 104.423 245.108 104.688 244.045 104.954C243.247 104.157 242.051 103.625 240.855 103.625C238.064 103.625 235.938 106.283 236.602 108.941C233.014 108.808 229.825 107.081 227.565 104.423C226.369 106.416 227.034 108.941 228.894 110.27C228.23 110.27 227.565 110.004 226.901 109.739C226.901 111.732 228.363 113.593 230.356 114.124C229.692 114.257 229.027 114.39 228.363 114.257C228.894 115.985 230.489 117.314 232.483 117.314C230.888 118.51 228.496 119.174 226.236 118.909C228.23 120.105 230.489 120.902 232.881 120.902C240.988 120.902 245.507 114.124 245.241 107.878C246.171 107.346 246.968 106.549 247.5 105.619Z" fill="white"/>
<rect x="269.473" y="91" width="42.5275" height="42.5275" rx="5" fill="#F2F2F2"/>
<path d="M284.642 111.159C284.642 108.138 284.642 106.628 285.58 105.69C286.518 104.752 288.029 104.752 291.049 104.752H294.252C297.273 104.752 298.783 104.752 299.721 105.69C300.659 106.628 300.659 108.138 300.659 111.159V116.498C300.659 119.518 300.659 121.028 299.721 121.967C298.783 122.905 297.273 122.905 294.252 122.905H291.049C288.029 122.905 286.518 122.905 285.58 121.967C284.642 121.028 284.642 119.518 284.642 116.498V111.159Z" stroke="#4F4F4F" stroke-width="2.3"/>
<path d="M284.017 119.076C282.247 119.076 280.813 117.642 280.813 115.873V109.466C280.813 105.439 280.813 103.425 282.064 102.174C283.315 100.923 285.329 100.923 289.356 100.923H293.627C295.397 100.923 296.831 102.357 296.831 104.127" stroke="#4F4F4F" stroke-width="2.3"/>
<defs>
<filter id="filter0_d_4971_243" x="0" y="0" width="366" height="190" filterUnits="userSpaceOnUse" color-interpolation-filters="sRGB">
<feFlood flood-opacity="0" result="BackgroundImageFix"/>
<feColorMatrix in="SourceAlpha" type="matrix" values="0 0 0 0 0 0 0 0 0 0 0 0 0 0 0 0 0 0 127 0" result="hardAlpha"/>
<feMorphology radius="5" operator="erode" in="SourceAlpha" result="effect1_dropShadow_4971_243"/>
<feOffset dy="3"/>
<feGaussianBlur stdDeviation="20"/>
<feColorMatrix type="matrix" values="0 0 0 0 0.12549 0 0 0 0 0.12549 0 0 0 0 0.12549 0 0 0 0.07 0"/>
<feBlend mode="normal" in2="BackgroundImageFix" result="effect1_dropShadow_4971_243"/>
<feBlend mode="normal" in="SourceGraphic" in2="effect1_dropShadow_4971_243" result="shape"/>
</filter>
</defs>
</svg>
