<svg width="22" height="22" viewBox="0 0 22 22" fill="none" xmlns="http://www.w3.org/2000/svg">
<path d="M20.9095 11.6875L12.375 3.15305C12.2478 3.02482 12.0964 2.92315 11.9295 2.85396C11.7626 2.78476 11.5837 2.74943 11.4031 2.75001H3.43751C3.25517 2.75001 3.0803 2.82244 2.95137 2.95137C2.82244 3.0803 2.75001 3.25517 2.75001 3.43751V11.4031C2.74943 11.5837 2.78476 11.7626 2.85396 11.9295C2.92315 12.0964 3.02482 12.2478 3.15305 12.375L11.6875 20.9095C11.8152 21.0372 11.9668 21.1385 12.1336 21.2076C12.3005 21.2767 12.4793 21.3123 12.6599 21.3123C12.8405 21.3123 13.0193 21.2767 13.1862 21.2076C13.353 21.1385 13.5046 21.0372 13.6323 20.9095L20.9095 13.6323C21.0372 13.5046 21.1385 13.353 21.2076 13.1862C21.2767 13.0193 21.3123 12.8405 21.3123 12.6599C21.3123 12.4793 21.2767 12.3005 21.2076 12.1336C21.1385 11.9668 21.0372 11.8152 20.9095 11.6875ZM7.21876 8.25001C7.0148 8.25001 6.81541 8.18953 6.64583 8.07621C6.47624 7.9629 6.34406 7.80184 6.26601 7.6134C6.18795 7.42496 6.16753 7.21761 6.20732 7.01757C6.24711 6.81753 6.34533 6.63378 6.48955 6.48955C6.63378 6.34533 6.81753 6.24711 7.01757 6.20732C7.21761 6.16753 7.42496 6.18795 7.6134 6.26601C7.80184 6.34406 7.9629 6.47624 8.07621 6.64583C8.18953 6.81541 8.25001 7.0148 8.25001 7.21876C8.25001 7.49226 8.14136 7.75456 7.94796 7.94796C7.75456 8.14136 7.49226 8.25001 7.21876 8.25001Z" fill="#1DBF73"/>
</svg>
